<svg width="36" height="36" viewBox="0 0 36 36" fill="none" xmlns="http://www.w3.org/2000/svg">
<path d="M28.0002 16.5953L11.9798 0.575117C11.6093 0.204291 11.1146 0 10.5872 0C10.0598 0 9.56518 0.204291 9.19464 0.575117L8.01485 1.75462C7.24715 2.5232 7.24715 3.77236 8.01485 4.53977L21.4676 17.9925L7.99992 31.4602C7.62939 31.8311 7.4248 32.3254 7.4248 32.8525C7.4248 33.3802 7.62939 33.8746 7.99992 34.2457L9.17972 35.4249C9.55054 35.7957 10.0449 36 10.5723 36C11.0997 36 11.5943 35.7957 11.9649 35.4249L28.0002 19.3901C28.3717 19.0181 28.5757 18.5214 28.5745 17.9934C28.5757 17.4634 28.3717 16.967 28.0002 16.5953Z" fill="#FFED00"/>
</svg>
