<svg width="40" height="40" viewBox="0 0 40 40" fill="none" xmlns="http://www.w3.org/2000/svg">
<g clip-path="url(#clip0)">
<path d="M39.7559 19.4109L27.2559 6.91091C26.9303 6.58536 26.403 6.58536 26.0775 6.91091C25.752 7.23646 25.752 7.7638 26.0775 8.08927L37.155 19.1668H0.833359C0.372734 19.1668 0 19.5395 0 20.0001C0 20.4608 0.372734 20.8335 0.833359 20.8335H37.155L26.0775 31.9109C25.752 32.2365 25.752 32.7638 26.0775 33.0893C26.2402 33.252 26.4535 33.3334 26.6667 33.3334C26.8799 33.3334 27.0931 33.252 27.2559 33.0893L39.7559 20.5893C40.0814 20.2638 40.0814 19.7365 39.7559 19.4109Z" fill="#263164"/>
</g>
<defs>
<clipPath id="clip0">
<rect width="40" height="40" fill="white"/>
</clipPath>
</defs>
</svg>
