<svg width="40" height="40" viewBox="0 0 40 40" fill="none" xmlns="http://www.w3.org/2000/svg">
<g clip-path="url(#clip0)">
<path d="M39.7559 19.4112L27.2559 6.91115C26.9303 6.58561 26.403 6.58561 26.0775 6.91115C25.752 7.2367 25.752 7.76404 26.0775 8.08951L37.155 19.167H0.833359C0.372734 19.167 0 19.5397 0 20.0004C0 20.461 0.372734 20.8337 0.833359 20.8337H37.155L26.0775 31.9111C25.752 32.2367 25.752 32.764 26.0775 33.0895C26.2402 33.2522 26.4535 33.3336 26.6667 33.3336C26.8799 33.3336 27.0931 33.2522 27.2559 33.0895L39.7559 20.5895C40.0814 20.264 40.0814 19.7367 39.7559 19.4112Z" fill="#FFF45E"/>
</g>
<defs>
<clipPath id="clip0">
<rect width="40" height="40" fill="white"/>
</clipPath>
</defs>
</svg>
