<svg version="1.1"
     baseProfile="full"
     xmlns="http://www.w3.org/2000/svg"
     fill="none"
>
  <symbol id="map-pin" viewBox="0 0 20 20">
    <path d="M10 0C6.12297 0 2.96875 3.15422 2.96875 7.03125C2.96875 8.34117 3.3316 9.61953 4.01832 10.7286L9.59977 19.723C9.70668 19.8953 9.89504 20 10.0976 20C10.0992 20 10.1007 20 10.1023 20C10.3066 19.9984 10.4954 19.8905 10.6003 19.7152L16.0395 10.6336C16.6883 9.54797 17.0312 8.30231 17.0312 7.03125C17.0312 3.15422 13.877 0 10 0ZM15.0338 10.032L10.0887 18.2885L5.01434 10.1112C4.44273 9.18805 4.13281 8.12305 4.13281 7.03125C4.13281 3.80039 6.76914 1.16406 10 1.16406C13.2309 1.16406 15.8633 3.80039 15.8633 7.03125C15.8633 8.09066 15.5738 9.12844 15.0338 10.032Z"/>
    <path d="M10 3.51562C8.06148 3.51562 6.48438 5.09273 6.48438 7.03125C6.48438 8.95738 8.03582 10.5469 10 10.5469C11.9884 10.5469 13.5156 8.93621 13.5156 7.03125C13.5156 5.09273 11.9385 3.51562 10 3.51562ZM10 9.38281C8.7009 9.38281 7.64844 8.32684 7.64844 7.03125C7.64844 5.73891 8.70766 4.67969 10 4.67969C11.2923 4.67969 12.3477 5.73891 12.3477 7.03125C12.3477 8.30793 11.3197 9.38281 10 9.38281Z"/>
  </symbol>

  <symbol id="user" viewBox="0 0 20 20">
    <path d="M17.0711 12.9289C15.9819 11.8398 14.6855 11.0335 13.2711 10.5454C14.786 9.50199 15.7812 7.75578 15.7812 5.78125C15.7812 2.59348 13.1878 0 10 0C6.81223 0 4.21875 2.59348 4.21875 5.78125C4.21875 7.75578 5.21402 9.50199 6.72898 10.5454C5.31453 11.0335 4.01813 11.8398 2.92895 12.9289C1.0402 14.8177 0 17.3289 0 20H1.5625C1.5625 15.3475 5.34754 11.5625 10 11.5625C14.6525 11.5625 18.4375 15.3475 18.4375 20H20C20 17.3289 18.9598 14.8177 17.0711 12.9289ZM10 10C7.67379 10 5.78125 8.1075 5.78125 5.78125C5.78125 3.455 7.67379 1.5625 10 1.5625C12.3262 1.5625 14.2188 3.455 14.2188 5.78125C14.2188 8.1075 12.3262 10 10 10Z" fill="white"/>
  </symbol>

  <symbol id="burger" viewBox="0 0 20 20">
    <path d="M19.1667 10.8161H0.833333C0.373332 10.8161 0 10.4427 0 9.98275C0 9.52275 0.373332 9.14941 0.833333 9.14941H19.1667C19.6267 9.14941 20 9.52275 20 9.98275C20 10.4427 19.6267 10.8161 19.1667 10.8161Z" fill="white"/>
    <path d="M19.1667 4.42692H0.833333C0.373332 4.42692 0 4.05359 0 3.59359C0 3.13359 0.373332 2.76025 0.833333 2.76025H19.1667C19.6267 2.76025 20 3.13359 20 3.59359C20 4.05359 19.6267 4.42692 19.1667 4.42692Z" fill="white"/>
    <path d="M19.1667 17.6667H0.833333C0.373332 17.6667 0 17.2933 0 16.8333C0 16.3733 0.373332 16 0.833333 16H19.1667C19.6267 16 20 16.3733 20 16.8333C20 17.2933 19.6267 17.6667 19.1667 17.6667Z" fill="white"/>
  </symbol>

  <symbol id="phone" viewBox="0 0 20 20">
    <g clip-path="url(#clip0)">
      <path d="M15.8061 12.3897C15.3967 11.9633 14.9028 11.7354 14.3794 11.7354C13.8602 11.7354 13.3621 11.9591 12.9357 12.3855L11.6018 13.7151C11.4921 13.656 11.3823 13.6011 11.2768 13.5463C11.1249 13.4703 10.9813 13.3985 10.8589 13.3225C9.60947 12.529 8.47399 11.4948 7.38493 10.1567C6.85729 9.48975 6.50272 8.92834 6.24523 8.35849C6.59136 8.0419 6.91217 7.71265 7.22453 7.39607C7.34272 7.27787 7.46091 7.15546 7.57911 7.03727C8.46554 6.15083 8.46554 5.00268 7.57911 4.11624L6.42673 2.96387C6.29588 2.83302 6.1608 2.69794 6.03417 2.56287C5.7809 2.30115 5.51497 2.031 5.2406 1.77773C4.83115 1.3725 4.34149 1.15723 3.82651 1.15723C3.31154 1.15723 2.81344 1.3725 2.39133 1.77773C2.38711 1.78195 2.38711 1.78195 2.38289 1.78618L0.947699 3.23403C0.407394 3.77433 0.0992508 4.43283 0.0317126 5.19685C-0.0695947 6.42943 0.293423 7.57758 0.572018 8.32894C1.25584 10.1736 2.27736 11.8831 3.80119 13.7151C5.65005 15.9228 7.87458 17.6661 10.4157 18.8944C11.3866 19.3545 12.6825 19.8991 14.1303 19.9919C14.219 19.9962 14.3118 20.0004 14.3962 20.0004C15.3713 20.0004 16.1902 19.65 16.8318 18.9535C16.8361 18.9451 16.8445 18.9409 16.8487 18.9324C17.0682 18.6665 17.3215 18.4259 17.5874 18.1684C17.7689 17.9953 17.9547 17.8138 18.1362 17.6239C18.5541 17.1891 18.7736 16.6826 18.7736 16.1634C18.7736 15.6399 18.5498 15.1376 18.1235 14.7155L15.8061 12.3897ZM17.3173 16.8345C17.313 16.8345 17.313 16.8387 17.3173 16.8345C17.1526 17.0118 16.9838 17.1722 16.8023 17.3495C16.5279 17.6112 16.2493 17.8856 15.9876 18.1937C15.5613 18.6496 15.059 18.8649 14.4005 18.8649C14.3371 18.8649 14.2696 18.8649 14.2063 18.8607C12.9526 18.7805 11.7876 18.2908 10.9138 17.8729C8.52464 16.7163 6.42673 15.0743 4.68341 12.9933C3.244 11.2584 2.28158 9.65438 1.64419 7.93215C1.25162 6.88109 1.1081 6.06219 1.17142 5.28972C1.21363 4.79585 1.40358 4.3864 1.75394 4.03604L3.19334 2.59663C3.40018 2.40246 3.61968 2.29693 3.83496 2.29693C4.10089 2.29693 4.31617 2.45734 4.45124 2.59241C4.45546 2.59663 4.45969 2.60086 4.46391 2.60508C4.7214 2.84568 4.96622 3.09473 5.22371 3.36066C5.35457 3.49574 5.48964 3.63081 5.62472 3.77011L6.77709 4.92248C7.22453 5.36992 7.22453 5.78359 6.77709 6.23103C6.65468 6.35345 6.53648 6.47586 6.41407 6.59405C6.0595 6.95707 5.72181 7.29476 5.35457 7.62401C5.34612 7.63245 5.33768 7.63667 5.33346 7.64511C4.97044 8.00813 5.03798 8.36271 5.11396 8.60331C5.11818 8.61598 5.1224 8.62864 5.12663 8.6413C5.42633 9.36734 5.84844 10.0512 6.49005 10.8658L6.49427 10.8701C7.65931 12.3052 8.88766 13.4239 10.2426 14.2807C10.4157 14.3905 10.593 14.4791 10.7618 14.5636C10.9138 14.6395 11.0573 14.7113 11.1797 14.7873C11.1966 14.7957 11.2135 14.8084 11.2304 14.8168C11.3739 14.8886 11.509 14.9224 11.6483 14.9224C11.9986 14.9224 12.2181 14.7029 12.2899 14.6311L13.7335 13.1875C13.877 13.0439 14.105 12.8709 14.3709 12.8709C14.6326 12.8709 14.8479 13.0355 14.9788 13.179C14.983 13.1832 14.983 13.1832 14.9872 13.1875L17.313 15.5133C17.7478 15.9439 17.7478 16.3871 17.3173 16.8345Z" fill="#FFF45E"/>
    </g>
    <defs>
      <clipPath id="clip0">
        <rect width="20" height="20" fill="white"/>
      </clipPath>
    </defs>
  </symbol>

  <symbol id="mail" viewBox="0 0 20 20">
    <path d="M18.2422 2.38281H1.75781C0.789766 2.38281 0 3.17172 0 4.14062V15.8594C0 16.825 0.78625 17.6172 1.75781 17.6172H18.2422C19.2078 17.6172 20 16.8309 20 15.8594V4.14062C20 3.175 19.2138 2.38281 18.2422 2.38281ZM17.9995 3.55469L10.0373 11.5169L2.00621 3.55469H17.9995ZM1.17188 15.6167V4.3777L6.81559 9.97301L1.17188 15.6167ZM2.00051 16.4453L7.64777 10.798L9.62656 12.7598C9.85563 12.987 10.2253 12.9862 10.4534 12.758L12.3828 10.8286L17.9995 16.4453H2.00051ZM18.8281 15.6167L13.2114 10L18.8281 4.38328V15.6167Z" fill="#FFF45E"/>
  </symbol>

  <symbol id="pentagon" viewBox="0 0 300 320">
    <path opacity="0.2" d="M138.074 23.3691L14.5539 93.9499C33.2152 125.693 51.8765 157.437 70.5378 189.181L104.306 78.3441L138.074 23.3691ZM148.204 266.323L159.757 304.628L287.542 231.565L284.521 201.594L232.447 226.422L148.204 266.323ZM33.3929 236.53L145.716 300.904L135.408 266.678L71.7819 212.057L33.3929 236.53ZM15.4425 236.707V119.664L0.868887 94.8365C-0.908382 91.9991 0.157979 88.275 3.00161 86.5016C53.1206 58.1275 103.062 29.3986 153.003 0.847092C155.136 -0.394278 157.624 -0.216939 159.401 1.02443L292.341 77.6347C294.474 78.6987 295.718 80.6495 295.718 83.1322V192.373L299.983 234.579C300.161 237.062 298.917 239.368 296.962 240.432L159.223 319.17C157.091 320.411 154.603 320.234 152.648 318.815L19.1747 242.205C17.042 241.318 15.4425 239.19 15.4425 236.707ZM27.7056 140.59V225.535L63.9619 202.304L27.7056 140.59ZM186.416 157.26C193.347 159.565 198.679 165.417 199.923 172.866L283.455 185.102V90.2257L231.025 99.0927L186.416 106.541V157.26ZM160.468 175.171C161.001 166.836 166.51 159.92 174.153 157.437V106.009L114.259 87.3883L81.3791 195.742L160.468 175.171ZM198.146 185.102C194.947 191.663 188.193 196.097 180.373 196.097C173.264 196.097 167.043 192.373 163.667 186.875L85.2891 207.269L141.984 255.86L269.059 195.388L238.845 190.954L198.146 185.102ZM158.157 14.3248L119.59 76.216L180.728 95.1912L271.902 79.7628L158.157 14.3248Z" fill="white"/>
  </symbol>

  <symbol id="scroll" viewBox="0 0 14 34" fill="none">
    <rect x="0.75" y="0.75" width="12.5" height="20.3182" rx="6.25" stroke="#FFF45E" stroke-width="1.5"/>
    <path d="M1.55566 26.1818L7.389 31.9999L13.2223 26.1818" stroke="#FFF45E" stroke-width="1.5"/>
  </symbol>

  <symbol id="scroll-line" viewBox="0 0 2 5">
    <line x1="0.972168" y1="0.636353" x2="0.972168" y2="4.27272" stroke="#FFF45E" stroke-width="1.5"/>
  </symbol>

  <symbol id="community" viewBox="0 0 80 80">
    <path d="M44.2638 34.1799C43.6378 33.5915 42.8963 33.1397 42.0864 32.8532C41.2764 32.5666 40.4158 32.4516 39.559 32.5154C38.4457 32.5942 37.3739 32.9696 36.4548 33.6026C35.5357 34.2357 34.8028 35.1033 34.3324 36.1154C33.862 37.1274 33.6711 38.2469 33.7797 39.3577C33.8882 40.4684 34.2922 41.5298 34.9496 42.4317C35.7819 43.5414 36.2374 44.8883 36.2496 46.2754V48.7498C36.2496 49.7444 36.6447 50.6982 37.348 51.4014C38.0512 52.1047 39.0051 52.4998 39.9996 52.4998C40.9942 52.4998 41.948 52.1047 42.6513 51.4014C43.3545 50.6982 43.7496 49.7444 43.7496 48.7498V46.2748C43.7501 44.9124 44.1896 43.5865 45.0029 42.4935C45.8156 41.415 46.2536 40.1003 46.2501 38.7498C46.2488 37.8928 46.0718 37.0451 45.7302 36.2592C45.3886 35.4732 44.8895 34.7656 44.2638 34.1799ZM41.2501 48.7498C41.2501 49.0813 41.1184 49.3993 40.884 49.6337C40.6495 49.8681 40.3316 49.9998 40.0001 49.9998C39.6686 49.9998 39.3506 49.8681 39.1162 49.6337C38.8818 49.3993 38.7501 49.0813 38.7501 48.7498V47.5248H41.2501V48.7498ZM43.0034 40.9945C42.121 42.1779 41.5491 43.5635 41.3399 45.0248H38.6591C38.4363 43.5511 37.856 42.1544 36.9688 40.9567C36.4453 40.2437 36.1936 39.3672 36.2592 38.4851C36.3091 37.7788 36.558 37.101 36.977 36.5302C37.3961 35.9594 37.9682 35.5189 38.6272 35.2597C39.2862 35.0005 40.0051 34.9332 40.7007 35.0656C41.3964 35.1979 42.0403 35.5245 42.5581 36.0076C43.2338 36.6378 43.653 37.4954 43.7352 38.4158C43.8174 39.3362 43.5568 40.2545 43.0034 40.9945Z" fill="#263164"/>
    <path d="M40 31.25C40.3315 31.25 40.6495 31.1183 40.8839 30.8839C41.1183 30.6495 41.25 30.3315 41.25 30V27.5C41.25 27.1685 41.1183 26.8505 40.8839 26.6161C40.6495 26.3817 40.3315 26.25 40 26.25C39.6685 26.25 39.3505 26.3817 39.1161 26.6161C38.8817 26.8505 38.75 27.1685 38.75 27.5V30C38.75 30.3315 38.8817 30.6495 39.1161 30.8839C39.3505 31.1183 39.6685 31.25 40 31.25Z" fill="#263164"/>
    <path d="M34.9999 32.4998C35.2471 32.4998 35.4888 32.4265 35.6943 32.2891C35.8999 32.1518 36.0601 31.9566 36.1547 31.7282C36.2494 31.4997 36.2741 31.2484 36.2259 31.0059C36.1776 30.7634 36.0586 30.5407 35.8838 30.3659L34.6338 29.1159C34.3993 28.8815 34.0814 28.7498 33.7499 28.7498C33.4183 28.7498 33.1004 28.8815 32.8659 29.1159C32.6315 29.3503 32.4998 29.6683 32.4998 29.9998C32.4998 30.3313 32.6315 30.6493 32.8659 30.8837L34.1159 32.1337C34.2319 32.2499 34.3697 32.3421 34.5214 32.4049C34.6731 32.4678 34.8357 32.5 34.9999 32.4998Z" fill="#263164"/>
    <path d="M45.3659 29.1159L44.1159 30.3659C43.8815 30.6003 43.7498 30.9183 43.7498 31.2498C43.7498 31.5813 43.8815 31.8993 44.1159 32.1337C44.3504 32.3681 44.6683 32.4998 44.9999 32.4998C45.3314 32.4998 45.6493 32.3681 45.8838 32.1337L47.1338 30.8837C47.2498 30.7676 47.3419 30.6298 47.4047 30.4782C47.4676 30.3265 47.4999 30.1639 47.4999 29.9998C47.4999 29.8356 47.4676 29.6731 47.4047 29.5214C47.3419 29.3698 47.2498 29.232 47.1338 29.1159C47.0177 28.9998 46.8799 28.9077 46.7282 28.8449C46.5766 28.7821 46.414 28.7498 46.2499 28.7498C46.0857 28.7498 45.9231 28.7821 45.7715 28.8449C45.6198 28.9077 45.482 28.9998 45.3659 29.1159Z" fill="#263164"/>
    <path d="M77.5 39.9999C77.4976 38.2044 76.8522 36.4692 75.6807 35.1086C74.5092 33.748 72.8891 32.852 71.1139 32.583L70.0818 24.3271C72.3253 23.5179 74.2539 22.0173 75.5898 20.0417C76.9256 18.066 77.5997 15.7172 77.515 13.3338C77.4302 10.9504 76.591 8.65542 75.1181 6.77962C73.6453 4.90383 71.615 3.54406 69.3197 2.89627C67.0245 2.24848 64.5828 2.34613 62.3466 3.17513C60.1104 4.00414 58.1952 5.52169 56.8768 7.50911C55.5585 9.49653 54.9052 11.8512 55.011 14.2338C55.1169 16.6163 55.9764 18.9038 57.4657 20.7665L51.4531 26.7788C48.6012 24.2983 45.0202 22.8121 41.25 22.5444V16.1249C42.37 15.8963 43.406 15.3648 44.245 14.5884C45.084 13.8119 45.694 12.8202 46.0087 11.7212C46.3232 10.6221 46.3304 9.45784 46.0293 8.35502C45.7282 7.25221 45.1304 6.2531 44.3009 5.46641C43.4715 4.67972 42.4422 4.1356 41.325 3.89324C40.2078 3.65089 39.0455 3.71959 37.9646 4.09187C36.8838 4.46415 35.9257 5.12575 35.1947 6.00467C34.4637 6.88359 33.9878 7.94617 33.8187 9.07678L24.8726 12.0582C24.5035 9.60517 23.3351 7.34256 21.5487 5.62145C19.7623 3.90035 17.4577 2.81699 14.9927 2.53948C12.5276 2.26197 10.0399 2.80584 7.91551 4.08669C5.79114 5.36753 4.14892 7.31373 3.24368 9.62329C2.33844 11.9328 2.22079 14.4766 2.90901 16.8599C3.59722 19.2431 5.0528 21.3326 7.04988 22.804C9.04697 24.2755 11.4739 25.0466 13.954 24.9978C16.4342 24.949 18.8289 24.083 20.7665 22.5341L26.6161 28.3838C26.6706 28.4379 26.7301 28.4869 26.7936 28.5302C24.3045 31.3846 22.8131 34.9722 22.5451 38.7499H17.3939C17.1555 37.3399 16.5191 36.0275 15.5596 34.9672C14.6 33.907 13.3574 33.1432 11.9781 32.7658C10.5988 32.3884 9.1404 32.4132 7.77474 32.8372C6.40909 33.2613 5.19312 34.0669 4.27017 35.1591C3.34721 36.2514 2.75574 37.5847 2.56546 39.0019C2.37519 40.4192 2.59404 41.8613 3.19624 43.1583C3.79843 44.4553 4.75885 45.5531 5.9643 46.3223C7.16976 47.0916 8.56999 47.5001 9.99996 47.4999C10.0912 47.4999 10.1817 47.4963 10.2723 47.493L12.177 55.1123C9.71595 55.4565 7.43786 56.6051 5.69759 58.379C3.95732 60.1528 2.85257 62.4525 2.55545 64.9197C2.25833 67.3868 2.78551 69.883 4.05487 72.0194C5.32423 74.1557 7.2645 75.8123 9.57344 76.731C11.8824 77.6497 14.4303 77.779 16.8204 77.0987C19.2105 76.4185 21.3085 74.9669 22.7876 72.97C24.2667 70.9731 25.0439 68.5431 24.9981 66.0585C24.9522 63.574 24.0859 61.1743 22.5342 59.2333L28.5467 53.221C31.7243 55.9804 35.7913 57.4998 39.9998 57.4998C44.2083 57.4998 48.2753 55.9804 51.4529 53.221L57.4654 59.2333C56.4072 60.5521 55.6612 62.0933 55.2833 63.7414C54.9054 65.3896 54.9054 67.1018 55.2834 68.7499H46.125C45.8152 67.2324 44.953 65.8839 43.7055 64.9659C42.458 64.0479 40.9141 63.6259 39.3731 63.7816C37.8321 63.9372 36.4037 64.6595 35.365 65.8085C34.3263 66.9574 33.7512 68.4511 33.7512 69.9999C33.7512 71.5488 34.3263 73.0424 35.365 74.1914C36.4037 75.3403 37.8321 76.0626 39.3731 76.2183C40.9141 76.3739 42.458 75.9519 43.7055 75.0339C44.953 74.1159 45.8152 72.7675 46.125 71.2499H56.177C57.0351 72.9786 58.3236 74.4574 59.9186 75.5442C61.5135 76.6309 63.3612 77.289 65.284 77.4551C67.2068 77.6213 69.14 77.2899 70.8977 76.4929C72.6554 75.6958 74.1785 74.4599 75.3205 72.904C76.4624 71.3482 77.1848 69.5246 77.4182 67.6088C77.6516 65.693 77.3882 63.7494 76.6532 61.9648C75.9182 60.1803 74.7365 58.6149 73.2216 57.4191C71.7066 56.2233 69.9095 55.4375 68.0031 55.1371L70.8873 47.4457C72.7088 47.2265 74.387 46.3482 75.6053 44.9765C76.8235 43.6047 77.4975 41.8345 77.5 39.9999ZM40 73.7499C39.2583 73.7499 38.5333 73.53 37.9166 73.1179C37.2999 72.7059 36.8192 72.1202 36.5354 71.435C36.2516 70.7497 36.1773 69.9958 36.322 69.2683C36.4667 68.5409 36.8239 67.8727 37.3483 67.3483C37.8728 66.8238 38.5409 66.4667 39.2684 66.322C39.9958 66.1773 40.7498 66.2515 41.435 66.5354C42.1202 66.8192 42.7059 67.2998 43.118 67.9165C43.53 68.5332 43.75 69.2582 43.75 69.9999C43.7488 70.9941 43.3533 71.9473 42.6503 72.6503C41.9473 73.3533 40.9942 73.7487 40 73.7499ZM59.2334 57.4657L53.2211 51.453C55.7016 48.6012 57.1878 45.0201 57.4554 41.2499H62.6067C62.8549 42.7021 63.5243 44.0493 64.5316 45.1244C65.539 46.1994 66.8399 46.9548 68.2729 47.2968L65.3701 55.0376C63.127 55.2117 60.9884 56.0579 59.2334 57.4657ZM75 39.9999C75 40.9888 74.7067 41.9555 74.1573 42.7778C73.6079 43.6 72.827 44.2409 71.9134 44.6193C70.9997 44.9977 69.9944 45.0968 69.0245 44.9038C68.0546 44.7109 67.1637 44.2347 66.4644 43.5354C65.7652 42.8362 65.289 41.9453 65.096 40.9754C64.9031 40.0055 65.0021 39.0001 65.3806 38.0865C65.759 37.1729 66.3999 36.392 67.2221 35.8426C68.0444 35.2932 69.0111 34.9999 70 34.9999C71.3256 35.0014 72.5965 35.5287 73.5339 36.466C74.4712 37.4034 74.9985 38.6743 75 39.9999ZM68.6006 32.6329C67.0975 32.9211 65.7182 33.6612 64.6471 34.7543C63.5759 35.8473 62.8638 37.2413 62.6061 38.7499H57.4548C57.1871 34.9797 55.701 31.3987 53.2204 28.5468L59.2328 22.5343C60.4017 23.4746 61.7482 24.1698 63.1918 24.5782C64.6354 24.9867 66.1464 25.1001 67.6348 24.9116L68.6006 32.6329ZM63.75 13.7499C63.75 13.2555 63.8966 12.7721 64.1713 12.361C64.446 11.9499 64.8364 11.6294 65.2933 11.4402C65.7501 11.251 66.2527 11.2015 66.7377 11.2979C67.2226 11.3944 67.6681 11.6325 68.0177 11.9821C68.3674 12.3318 68.6055 12.7772 68.7019 13.2622C68.7984 13.7471 68.7489 14.2498 68.5597 14.7066C68.3704 15.1634 68.05 15.5539 67.6389 15.8286C67.2278 16.1033 66.7444 16.2499 66.25 16.2499C65.5872 16.2491 64.9517 15.9855 64.4831 15.5168C64.0144 15.0481 63.7507 14.4127 63.75 13.7499ZM63.75 18.7499H68.75C69.3588 18.7509 69.9463 18.9738 70.4026 19.3769C70.8589 19.7799 71.1525 20.3355 71.2286 20.9396C69.7671 21.9554 68.0298 22.4999 66.25 22.4999C64.4701 22.4999 62.7329 21.9554 61.2714 20.9396C61.3474 20.3355 61.6411 19.7799 62.0973 19.3769C62.5536 18.9738 63.1412 18.7509 63.75 18.7499ZM66.25 4.9999C67.878 4.99888 69.4739 5.45236 70.8582 6.30926C72.2424 7.16617 73.3599 8.39248 74.085 9.85013C74.81 11.3078 75.1137 12.9389 74.9619 14.5598C74.8101 16.1807 74.2088 17.7271 73.2257 19.0247C72.6435 17.859 71.6312 16.9649 70.4025 16.5312C70.9072 15.7786 71.198 14.903 71.2436 13.9979C71.2893 13.0929 71.0881 12.1925 70.6616 11.3929C70.2351 10.5934 69.5994 9.92475 68.8223 9.45854C68.0453 8.99233 67.1561 8.74606 66.25 8.74606C65.3438 8.74606 64.4546 8.99233 63.6776 9.45854C62.9005 9.92475 62.2648 10.5934 61.8383 11.3929C61.4118 12.1925 61.2107 13.0929 61.2563 13.9979C61.302 14.903 61.5927 15.7786 62.0975 16.5312C60.8688 16.9648 59.8566 17.8586 59.2742 19.0241C58.2913 17.7264 57.6902 16.1801 57.5385 14.5593C57.3868 12.9385 57.6905 11.3075 58.4155 9.84999C59.1405 8.39245 60.258 7.16622 61.6421 6.30935C63.0262 5.45247 64.6221 4.99897 66.25 4.9999ZM40 6.2499C40.7416 6.2499 41.4667 6.46984 42.0834 6.88189C42.7 7.29395 43.1807 7.87962 43.4645 8.56484C43.7483 9.25006 43.8226 10.0041 43.6779 10.7315C43.5332 11.4589 43.1761 12.1271 42.6516 12.6516C42.1272 13.176 41.459 13.5332 40.7316 13.6778C40.0041 13.8225 39.2501 13.7483 38.5649 13.4645C37.8797 13.1806 37.294 12.7 36.882 12.0833C36.4699 11.4666 36.25 10.7416 36.25 9.9999C36.2511 9.0057 36.6466 8.05254 37.3496 7.34953C38.0526 6.64652 39.0058 6.25106 40 6.2499ZM4.99996 13.7499C4.99881 12.3614 5.32809 10.9926 5.96059 9.75661C6.5931 8.52058 7.51067 7.45282 8.63747 6.64156C9.76428 5.8303 11.068 5.29885 12.4408 5.09111C13.8136 4.88337 15.2162 5.00531 16.5326 5.44686C17.849 5.88841 19.0414 6.63689 20.0113 7.63044C20.9811 8.62399 21.7007 9.83409 22.1104 11.1607C22.5201 12.4874 22.6082 13.8925 22.3674 15.2599C22.1266 16.6273 21.5639 17.9178 20.7257 19.0247C20.1435 17.859 19.1312 16.9649 17.9025 16.5312C18.4072 15.7786 18.698 14.903 18.7436 13.9979C18.7893 13.0929 18.5881 12.1925 18.1616 11.3929C17.7351 10.5934 17.0994 9.92475 16.3223 9.45854C15.5453 8.99233 14.6561 8.74606 13.75 8.74606C12.8438 8.74606 11.9546 8.99233 11.1776 9.45854C10.4005 9.92475 9.76478 10.5934 9.3383 11.3929C8.91183 12.1925 8.71066 13.0929 8.75631 13.9979C8.80196 14.903 9.0927 15.7786 9.59746 16.5312C8.36881 16.9648 7.35656 17.8586 6.77418 19.0241C5.62164 17.5075 4.99837 15.6547 4.99996 13.7499ZM11.25 13.7499C11.25 13.2555 11.3966 12.7721 11.6713 12.361C11.946 11.9499 12.3364 11.6294 12.7933 11.4402C13.2501 11.251 13.7527 11.2015 14.2377 11.2979C14.7226 11.3944 15.1681 11.6325 15.5177 11.9821C15.8674 12.3318 16.1055 12.7772 16.2019 13.2622C16.2984 13.7471 16.2489 14.2498 16.0597 14.7066C15.8704 15.1634 15.55 15.5539 15.1389 15.8286C14.7278 16.1033 14.2444 16.2499 13.75 16.2499C13.0872 16.2491 12.4517 15.9855 11.9831 15.5168C11.5144 15.0481 11.2507 14.4127 11.25 13.7499ZM8.77137 20.9396C8.8474 20.3355 9.14106 19.7799 9.59732 19.3769C10.0536 18.9738 10.6412 18.7509 11.25 18.7499H16.25C16.8588 18.7509 17.4463 18.9738 17.9026 19.3769C18.3589 19.7799 18.6525 20.3355 18.7286 20.9396C17.2671 21.9554 15.5298 22.4999 13.75 22.4999C11.9701 22.4999 10.2329 21.9554 8.77137 20.9396ZM22.5342 20.7665C23.9347 19.0207 24.7795 16.8951 24.9597 14.6643L33.9753 11.6591C34.2834 12.7707 34.8921 13.7757 35.7345 14.5636C36.5769 15.3515 37.6203 15.8917 38.75 16.1249V22.5458C34.9722 22.8138 31.3847 24.3052 28.5303 26.7943C28.487 26.7308 28.438 26.6714 28.3839 26.6168L22.5342 20.7665ZM4.99996 39.9999C4.99996 39.011 5.29321 38.0443 5.84262 37.2221C6.39202 36.3998 7.17292 35.7589 8.08655 35.3805C9.00018 35.0021 10.0055 34.9031 10.9754 35.096C11.9453 35.2889 12.8362 35.7651 13.5355 36.4644C14.2348 37.1636 14.711 38.0546 14.9039 39.0245C15.0968 39.9944 14.9978 40.9997 14.6194 41.9133C14.2409 42.827 13.6001 43.6078 12.7778 44.1573C11.9556 44.7067 10.9889 44.9999 9.99996 44.9999C8.67434 44.9984 7.40343 44.4712 6.46607 43.5338C5.52871 42.5964 5.00145 41.3255 4.99996 39.9999ZM17.3939 41.2499H22.5451C22.8128 45.0201 24.2989 48.6012 26.7795 51.453L20.7672 57.4655C19.0408 56.0804 16.9424 55.2384 14.7375 55.0458L12.7218 46.9862C13.9288 46.5136 14.9932 45.7372 15.8118 44.7321C16.6304 43.7271 17.1754 42.5276 17.3939 41.2499ZM8.77137 73.4396C8.8474 72.8356 9.14106 72.28 9.59732 71.8769C10.0536 71.4738 10.6412 71.2509 11.25 71.2499H16.25C16.8588 71.2509 17.4463 71.4738 17.9026 71.8769C18.3589 72.28 18.6525 72.8356 18.7286 73.4396C17.2671 74.4554 15.5298 74.9999 13.75 74.9999C11.9701 74.9999 10.2329 74.4554 8.77137 73.4396ZM11.25 66.2499C11.25 65.7555 11.3966 65.2721 11.6713 64.861C11.946 64.4499 12.3364 64.1294 12.7933 63.9402C13.2501 63.751 13.7527 63.7015 14.2377 63.7979C14.7226 63.8944 15.1681 64.1325 15.5177 64.4821C15.8674 64.8318 16.1055 65.2772 16.2019 65.7622C16.2984 66.2471 16.2489 66.7498 16.0597 67.2066C15.8704 67.6634 15.55 68.0539 15.1389 68.3286C14.7278 68.6033 14.2444 68.7499 13.75 68.7499C13.0872 68.7491 12.4517 68.4855 11.9831 68.0168C11.5144 67.5481 11.2507 66.9127 11.25 66.2499ZM20.7257 71.5247C20.1435 70.359 19.1312 69.4649 17.9025 69.0312C18.4072 68.2786 18.698 67.403 18.7436 66.4979C18.7893 65.5929 18.5881 64.6925 18.1616 63.8929C17.7351 63.0934 17.0994 62.4247 16.3223 61.9585C15.5453 61.4923 14.6561 61.2461 13.75 61.2461C12.8438 61.2461 11.9546 61.4923 11.1776 61.9585C10.4005 62.4247 9.76478 63.0934 9.3383 63.8929C8.91183 64.6925 8.71066 65.5929 8.75631 66.4979C8.80196 67.403 9.0927 68.2786 9.59746 69.0312C8.36881 69.4648 7.35656 70.3586 6.77418 71.5241C5.79116 70.2259 5.18991 68.6791 5.03808 67.0578C4.88625 65.4365 5.18986 63.805 5.91475 62.3469C6.63964 60.8887 7.75705 59.6618 9.14126 58.8041C10.5255 57.9464 12.1216 57.492 13.75 57.492C15.3784 57.492 16.9745 57.9464 18.3587 58.8041C19.7429 59.6618 20.8603 60.8887 21.5852 62.3469C22.3101 63.805 22.6137 65.4365 22.4618 67.0578C22.31 68.6791 21.7088 70.2259 20.7257 71.5241V71.5247ZM25 39.9999C25 37.0332 25.8797 34.1331 27.5279 31.6664C29.1761 29.1996 31.5188 27.277 34.2597 26.1417C37.0006 25.0064 40.0166 24.7094 42.9263 25.2881C45.836 25.8669 48.5088 27.2955 50.6066 29.3933C52.7044 31.4911 54.133 34.1638 54.7117 37.0736C55.2905 39.9833 54.9935 42.9993 53.8582 45.7402C52.7228 48.481 50.8003 50.8237 48.3335 52.472C45.8668 54.1202 42.9667 54.9999 40 54.9999C36.0231 54.9954 32.2104 53.4137 29.3983 50.6016C26.5862 47.7895 25.0044 43.9768 25 39.9999ZM61.2714 73.4396C61.3474 72.8356 61.6411 72.28 62.0973 71.8769C62.5536 71.4738 63.1412 71.2509 63.75 71.2499H68.75C69.3588 71.2509 69.9463 71.4738 70.4026 71.8769C70.8589 72.28 71.1525 72.8356 71.2286 73.4396C69.7671 74.4554 68.0298 74.9999 66.25 74.9999C64.4701 74.9999 62.7329 74.4554 61.2714 73.4396ZM63.75 66.2499C63.75 65.7555 63.8966 65.2721 64.1713 64.861C64.446 64.4499 64.8364 64.1294 65.2933 63.9402C65.7501 63.751 66.2527 63.7015 66.7377 63.7979C67.2226 63.8944 67.6681 64.1325 68.0177 64.4821C68.3674 64.8318 68.6055 65.2772 68.7019 65.7622C68.7984 66.2471 68.7489 66.7498 68.5597 67.2066C68.3704 67.6634 68.05 68.0539 67.6389 68.3286C67.2278 68.6033 66.7444 68.7499 66.25 68.7499C65.5872 68.7491 64.9517 68.4855 64.4831 68.0168C64.0144 67.5481 63.7507 66.9127 63.75 66.2499ZM75 66.2499C75.0017 68.155 74.3784 70.008 73.2257 71.5247C72.6435 70.359 71.6312 69.4649 70.4025 69.0312C70.9072 68.2786 71.198 67.403 71.2436 66.4979C71.2893 65.5929 71.0881 64.6925 70.6616 63.8929C70.2351 63.0934 69.5994 62.4247 68.8223 61.9585C68.0453 61.4923 67.1561 61.2461 66.25 61.2461C65.3438 61.2461 64.4546 61.4923 63.6776 61.9585C62.9005 62.4247 62.2648 63.0934 61.8383 63.8929C61.4118 64.6925 61.2107 65.5929 61.2563 66.4979C61.302 67.403 61.5927 68.2786 62.0975 69.0312C60.8688 69.4648 59.8566 70.3586 59.2742 71.5241C58.4372 70.4173 57.8755 69.1271 57.6355 67.7603C57.3955 66.3935 57.4842 64.9892 57.8941 63.6634C58.304 62.3376 59.0235 61.1284 59.993 60.1355C60.9626 59.1427 62.1544 58.3948 63.4701 57.9535C64.7858 57.5122 66.1876 57.3903 67.5597 57.5978C68.9318 57.8052 70.2349 58.3362 71.3614 59.1467C72.4878 59.9572 73.4052 61.0241 74.0379 62.2592C74.6706 63.4943 75.0003 64.8622 75 66.2499Z" fill="#263164"/>
  </symbol>

  <symbol id="virtual-office" viewBox="0 0 80 80">
    <g clip-path="url(#clip0)">
      <path d="M51.1186 14.8458C51.1186 14.1986 50.5941 13.6741 49.9469 13.6741H30.0525C29.4053 13.6741 28.8808 14.1986 28.8808 14.8458C28.8808 15.493 29.4055 16.0175 30.0525 16.0175H49.9467C50.5941 16.0175 51.1186 15.493 51.1186 14.8458Z" fill="#263164"/>
      <path d="M49.7569 21.5638C49.7569 20.9166 49.2323 20.3921 48.5851 20.3921H31.4145C30.7673 20.3921 30.2428 20.9166 30.2428 21.5638C30.2428 22.211 30.7675 22.7355 31.4145 22.7355H48.5851C49.2323 22.7357 49.7569 22.2112 49.7569 21.5638Z" fill="#263164"/>
      <path d="M47.5515 27.187H32.4485C31.8013 27.187 31.2768 27.7115 31.2768 28.3587C31.2768 29.0059 31.8015 29.5304 32.4485 29.5304H47.5515C48.1987 29.5304 48.7232 29.0059 48.7232 28.3587C48.7232 27.7115 48.1987 27.187 47.5515 27.187Z" fill="#263164"/>
      <path d="M17.6174 19.768C17.7402 20.3123 18.2236 20.682 18.7592 20.682C18.8445 20.682 18.9314 20.6725 19.0183 20.653C19.6495 20.5105 20.046 19.8833 19.9035 19.2519L19.2384 16.305C17.622 9.14094 23.0724 2.34344 30.4006 2.34344H49.5994C56.9431 2.34344 62.3747 9.15625 60.7614 16.305L60.1055 19.2123C59.9631 19.8436 60.3594 20.4708 60.9908 20.6133C61.6222 20.7559 62.2494 20.3595 62.3917 19.728L63.0477 16.8206C64.995 8.18969 58.4285 0 49.5994 0H30.4006C21.5525 0 15.0089 8.20812 16.9524 16.8209L17.6174 19.768Z" fill="#263164"/>
      <path d="M61.419 41.7181H60.4488C58.194 41.7181 56.3593 43.5526 56.3593 45.8076C56.3593 46.7704 55.5762 47.5535 54.6133 47.5535H46.9899L47.4529 44.427H49.6443C53.8682 44.427 57.4676 41.5493 58.3974 37.4292L61.1822 25.0882C61.3246 24.4568 60.9283 23.8296 60.2971 23.6871C59.6649 23.5457 59.0387 23.9409 58.896 24.5723L56.1112 36.9134C55.4243 39.9574 52.7651 42.0835 49.6443 42.0835H30.3555C27.2347 42.0835 24.5754 39.9574 23.8885 36.9132L21.109 24.5959C20.9665 23.9648 20.3399 23.5688 19.708 23.7107C19.0768 23.8532 18.6804 24.4804 18.8229 25.1118L21.6024 37.429C22.5321 41.5493 26.1315 44.427 30.3554 44.427H32.5468L33.0097 47.5535H25.3863C24.4236 47.5535 23.6404 46.7704 23.6404 45.8076C23.6404 43.5528 21.8058 41.7181 19.551 41.7181H18.5808C16.326 41.7181 14.4913 43.5526 14.4913 45.8076V48.0207C14.4913 52.7376 18.3288 56.5751 23.0457 56.5751H31.8643V56.8879C31.8643 58.9309 33.5263 60.5931 35.5693 60.5931H35.8983V68.1929H26.7901C24.3554 68.1929 22.2961 69.8265 21.6483 72.055C19.8871 72.4862 18.576 74.0773 18.576 75.9695C18.576 78.1918 20.3841 80.0001 22.6066 80.0001C24.8291 80.0001 26.6372 78.192 26.6372 75.9695C26.6372 74.2712 25.5808 72.8159 24.091 72.2234C24.5813 71.2257 25.6051 70.5364 26.7901 70.5364H38.828V72.1131C37.1754 72.6162 35.9691 74.1545 35.9691 75.9695C35.9691 78.1918 37.7774 80 39.9999 80C42.2222 80 44.0305 78.1918 44.0305 75.9693C44.0305 74.1543 42.8244 72.6162 41.1718 72.1131V70.5364H53.2096C54.3946 70.5364 55.4183 71.2256 55.9087 72.2234C54.419 72.8159 53.3626 74.2712 53.3626 75.9695C53.3626 78.1918 55.1707 80.0001 57.3932 80.0001C59.6157 80.0001 61.424 78.192 61.424 75.9695C61.424 74.0773 60.1127 72.4862 58.3515 72.055C57.7037 69.8264 55.6446 68.1929 53.2097 68.1929H44.1016V60.5931H44.4305C46.4735 60.5931 48.1357 58.9309 48.1357 56.8879V56.5751H56.9543C61.6712 56.5751 65.5088 52.7376 65.5088 48.0207V45.8076C65.5083 43.5526 63.6738 41.7181 61.419 41.7181ZM24.2938 75.9693C24.2938 76.8996 23.5369 77.6564 22.6068 77.6564C21.6765 77.6564 20.9197 76.8996 20.9197 75.9693C20.9197 75.039 21.6765 74.2823 22.6068 74.2823C23.5371 74.2823 24.2938 75.0392 24.2938 75.9693ZM57.3929 74.2823C58.3232 74.2823 59.0801 75.039 59.0801 75.9693C59.0801 76.8996 58.3232 77.6564 57.3929 77.6564C56.4626 77.6564 55.7058 76.8996 55.7058 75.9693C55.7058 75.0392 56.4626 74.2823 57.3929 74.2823ZM45.0837 44.427L44.6207 47.5535H35.379L34.916 44.427H45.0837ZM41.6869 75.9693C41.6869 76.8996 40.9302 77.6564 39.9999 77.6564C39.0696 77.6564 38.3129 76.8996 38.3129 75.9693C38.3129 75.039 39.0697 74.2823 39.9999 74.2823C40.9301 74.2823 41.6869 75.0392 41.6869 75.9693ZM41.7577 68.1928H38.2421V60.5929H41.7577V68.1928ZM45.7918 56.8878C45.7918 57.6385 45.181 58.2493 44.4302 58.2493H35.5694C34.8186 58.2493 34.2079 57.6385 34.2079 56.8878V56.5749H45.7918V56.8878ZM63.1647 48.0207C63.1647 51.4453 60.3785 54.2315 56.9538 54.2315H23.0457C19.621 54.2315 16.8349 51.4453 16.8349 48.0207V45.8076C16.8349 44.8448 17.6182 44.0617 18.5808 44.0617H19.551C20.5136 44.0617 21.2968 44.8448 21.2968 45.8076C21.2968 48.0624 23.1313 49.8971 25.3863 49.8971H54.613C56.8679 49.8971 58.7026 48.0626 58.7026 45.8076C58.7026 44.8448 59.4857 44.0617 60.4485 44.0617H61.4186C62.3815 44.0617 63.1646 44.8448 63.1646 45.8076V48.0207H63.1647Z" fill="#263164"/>
    </g>
    <defs>
      <clipPath id="clip0">
        <rect width="80" height="80" fill="white"/>
      </clipPath>
    </defs>
  </symbol>

  <symbol id="clock-24" viewBox="0 0 80 80">
    <path d="M78.6667 72.0001H74.6667V46.6668C74.6662 45.9305 74.0687 45.334 73.3324 45.3345C72.8979 45.3348 72.4907 45.5468 72.2414 45.9028L53.5747 72.5695C53.1527 73.173 53.2999 74.0043 53.9034 74.4261C54.1272 74.5826 54.3935 74.6666 54.6667 74.6668H72V78.6668C72 79.4031 72.597 80.0001 73.3334 80.0001C74.0697 80.0001 74.6667 79.4031 74.6667 78.6668V74.6668H78.6667C79.403 74.6668 80 74.0698 80 73.3335C80 72.5971 79.403 72.0001 78.6667 72.0001ZM72 72.0001H57.2267L72 50.8961V72.0001Z" fill="#263164"/>
    <path d="M54.6667 77.3333H38.8813L53.5573 60.052C53.5907 60.0124 53.6218 59.971 53.6507 59.928C56.4117 55.8417 55.492 50.3092 51.5573 47.336C46.7732 43.8985 40.1082 44.9904 36.6708 49.7745C35.3673 51.5887 34.6663 53.7662 34.6667 56C34.6667 56.7364 35.2637 57.3334 36 57.3334C36.7363 57.3334 37.3333 56.7364 37.3333 56C37.3328 51.5817 40.9143 47.9997 45.3325 47.9992C47.0072 47.999 48.6397 48.5244 50 49.5014C52.7562 51.6132 53.398 55.5025 51.4667 58.388L34.984 77.804C34.5075 78.3655 34.5765 79.2068 35.138 79.6833C35.3788 79.8877 35.6842 79.9998 36 80H54.6667C55.403 80 56 79.403 56 78.6667C56 77.9303 55.403 77.3333 54.6667 77.3333Z" fill="#263164"/>
    <path d="M36.0293 70.692C36.0572 69.9562 35.483 69.3372 34.7472 69.3093C34.747 69.3093 34.7468 69.3093 34.7467 69.3093C17.3517 68.6637 3.39017 54.7272 2.71333 37.3333H8C8.73633 37.3333 9.33333 36.7363 9.33333 36C9.33333 35.2637 8.73633 34.6667 8 34.6667H2.71333C3.3805 17.3035 17.3033 3.38117 34.6667 2.71467V6.66667C34.6667 7.403 35.2637 8 36 8C36.7363 8 37.3333 7.403 37.3333 6.66667V2.71467C54.459 3.377 68.281 16.938 69.2693 34.048L64.0693 28.848C63.5397 28.3363 62.6957 28.351 62.184 28.8807C61.685 29.3973 61.685 30.2165 62.184 30.7333L69.6267 38.176C69.7668 38.3457 69.9475 38.4772 70.152 38.5587C70.2042 38.5743 70.2572 38.5873 70.3107 38.5973C70.4022 38.6303 70.4968 38.6532 70.5933 38.6653C70.6067 38.6653 70.6187 38.6653 70.632 38.6653C70.6453 38.6653 70.6573 38.6653 70.6693 38.6653C70.7708 38.6577 70.8712 38.638 70.968 38.6067C71.0228 38.6 71.0772 38.5898 71.1307 38.576C71.3112 38.5118 71.4755 38.409 71.612 38.2747L79.156 30.7333C79.6675 30.2037 79.653 29.3597 79.1233 28.848C78.6067 28.349 77.7875 28.349 77.2707 28.848L71.9413 34.1733C70.9888 15.0617 55.23 0.0468333 36.0947 0.0186667C36.0613 0.0173333 36.0333 0 36 0C35.9667 0 35.9387 0.0173333 35.9053 0.0186667C16.097 0.0458333 0.0458333 16.097 0.0186667 35.9053C0.0186667 35.9387 0 35.9667 0 36C0 36.0333 0.0173333 36.0613 0.0186667 36.0947C0.0518333 55.4142 15.3418 71.2563 34.648 71.9747H34.6973C35.4138 71.9745 36.0022 71.408 36.0293 70.692Z" fill="#263164"/>
    <path d="M53.9135 18.0867C53.3928 17.5662 52.5488 17.5662 52.0282 18.0867L37.7002 32.4133C36.6177 31.9307 35.3812 31.9307 34.2989 32.4133L27.5149 25.6293C26.9852 25.1178 26.141 25.1325 25.6295 25.6622C25.1305 26.1788 25.1305 26.998 25.6295 27.5147L32.4002 34.2853C31.4495 36.2753 32.2922 38.6593 34.2824 39.6098C35.8099 40.3395 37.6315 40.0267 38.8282 38.8293C40.0314 37.6363 40.3412 35.8097 39.5989 34.2867L53.9135 19.972C54.434 19.4513 54.434 18.6073 53.9135 18.0867ZM36.9432 36.9423C36.943 36.9425 36.943 36.9425 36.9429 36.9427C36.4155 37.4468 35.5849 37.4468 35.0575 36.9427C34.5367 36.422 34.5367 35.5778 35.0572 35.057C35.5779 34.5362 36.422 34.5362 36.9429 35.0567C37.4637 35.5773 37.4637 36.4217 36.9432 36.9423Z" fill="#263164"/>
  </symbol>

  <symbol id="sport" viewBox="0 0 80 80">
    <path d="M77.2656 32.5781H75.3125V24.6875C75.3125 22.8352 73.8055 21.3281 71.9531 21.3281H66.9531C66.5992 21.3281 66.2581 21.3839 65.9375 21.4859V21.0156C65.9375 18.4741 63.8697 16.4062 61.3281 16.4062H55.0781C52.5366 16.4062 50.4688 18.4741 50.4688 21.0156V34.8111H29.5312V21.0156C29.5312 18.4741 27.4634 16.4062 24.9219 16.4062H18.6719C16.1303 16.4062 14.0625 18.4741 14.0625 21.0156V21.4859C13.7419 21.3839 13.4008 21.3281 13.0469 21.3281H8.04688C6.19453 21.3281 4.6875 22.8352 4.6875 24.6875V26.2011C4.6875 26.8483 5.21219 27.373 5.85938 27.373C6.50656 27.373 7.03125 26.8483 7.03125 26.2011V24.6875C7.03125 24.1275 7.48688 23.6719 8.04688 23.6719H13.0469C13.6069 23.6719 14.0625 24.1275 14.0625 24.6875V55.3125C14.0625 55.8725 13.6069 56.3281 13.0469 56.3281H8.04688C7.48688 56.3281 7.03125 55.8725 7.03125 55.3125V31.2155C7.03125 30.5683 6.50656 30.0436 5.85938 30.0436C5.21219 30.0436 4.6875 30.5683 4.6875 31.2155V32.5781H2.73438C1.22672 32.5781 0 33.8048 0 35.3125V44.6875C0 46.1952 1.22672 47.4219 2.73438 47.4219H4.6875V55.3125C4.6875 57.1648 6.19453 58.6719 8.04688 58.6719H13.0469C13.4008 58.6719 13.7419 58.6161 14.0625 58.5141V58.9844C14.0625 61.5259 16.1303 63.5938 18.6719 63.5938H24.9219C27.4634 63.5938 29.5312 61.5259 29.5312 58.9844V45.1889H31.2369C31.8841 45.1889 32.4087 44.6642 32.4087 44.017C32.4087 43.3698 31.8841 42.8452 31.2369 42.8452H29.5312V37.1548H50.4688V42.8452H36.3169C35.6697 42.8452 35.145 43.3698 35.145 44.017C35.145 44.6642 35.6697 45.1889 36.3169 45.1889H50.4688V58.9844C50.4688 61.5259 52.5366 63.5938 55.0781 63.5938H61.3281C63.8697 63.5938 65.9375 61.5259 65.9375 58.9844V58.5141C66.2581 58.6161 66.5992 58.6719 66.9531 58.6719H71.9531C73.8055 58.6719 75.3125 57.1648 75.3125 55.3125V53.73C75.3125 53.0828 74.7878 52.5581 74.1406 52.5581C73.4934 52.5581 72.9688 53.0828 72.9688 53.73V55.3125C72.9688 55.8725 72.5131 56.3281 71.9531 56.3281H66.9531C66.3931 56.3281 65.9375 55.8725 65.9375 55.3125V24.6875C65.9375 24.1275 66.3931 23.6719 66.9531 23.6719H71.9531C72.5131 23.6719 72.9688 24.1275 72.9688 24.6875V48.6719C72.9688 49.3191 73.4934 49.8438 74.1406 49.8438C74.7878 49.8438 75.3125 49.3191 75.3125 48.6719V47.4219H77.2656C78.7733 47.4219 80 46.1952 80 44.6875V35.3125C80 33.8048 78.7733 32.5781 77.2656 32.5781ZM2.73438 45.0781C2.51906 45.0781 2.34375 44.9028 2.34375 44.6875V35.3125C2.34375 35.0972 2.51906 34.9219 2.73438 34.9219H4.6875V45.0781H2.73438ZM27.1875 58.9844C27.1875 60.2336 26.1711 61.25 24.9219 61.25H18.6719C17.4227 61.25 16.4062 60.2336 16.4062 58.9844V21.0156C16.4062 19.7664 17.4227 18.75 18.6719 18.75H24.9219C26.1711 18.75 27.1875 19.7664 27.1875 21.0156V58.9844ZM63.5938 58.9844C63.5938 60.2336 62.5773 61.25 61.3281 61.25H55.0781C53.8289 61.25 52.8125 60.2336 52.8125 58.9844V21.0156C52.8125 19.7664 53.8289 18.75 55.0781 18.75H61.3281C62.5773 18.75 63.5938 19.7664 63.5938 21.0156V58.9844ZM77.6562 44.6875C77.6562 44.9028 77.4809 45.0781 77.2656 45.0781H75.3125V34.9219H77.2656C77.4809 34.9219 77.6562 35.0972 77.6562 35.3125V44.6875Z" fill="#263164"/>
  </symbol>
</svg>
