<svg version="1.1"
     baseProfile="full"
     xmlns="http://www.w3.org/2000/svg"
     fill="none"
>
  <symbol id="map-pin" viewBox="0 0 20 20">
    <path d="M10 0C6.12297 0 2.96875 3.15422 2.96875 7.03125C2.96875 8.34117 3.3316 9.61953 4.01832 10.7286L9.59977 19.723C9.70668 19.8953 9.89504 20 10.0976 20C10.0992 20 10.1007 20 10.1023 20C10.3066 19.9984 10.4954 19.8905 10.6003 19.7152L16.0395 10.6336C16.6883 9.54797 17.0312 8.30231 17.0312 7.03125C17.0312 3.15422 13.877 0 10 0ZM15.0338 10.032L10.0887 18.2885L5.01434 10.1112C4.44273 9.18805 4.13281 8.12305 4.13281 7.03125C4.13281 3.80039 6.76914 1.16406 10 1.16406C13.2309 1.16406 15.8633 3.80039 15.8633 7.03125C15.8633 8.09066 15.5738 9.12844 15.0338 10.032Z"/>
    <path d="M10 3.51562C8.06148 3.51562 6.48438 5.09273 6.48438 7.03125C6.48438 8.95738 8.03582 10.5469 10 10.5469C11.9884 10.5469 13.5156 8.93621 13.5156 7.03125C13.5156 5.09273 11.9385 3.51562 10 3.51562ZM10 9.38281C8.7009 9.38281 7.64844 8.32684 7.64844 7.03125C7.64844 5.73891 8.70766 4.67969 10 4.67969C11.2923 4.67969 12.3477 5.73891 12.3477 7.03125C12.3477 8.30793 11.3197 9.38281 10 9.38281Z"/>
  </symbol>

  <symbol id="user" viewBox="0 0 20 20">
    <path d="M17.0711 12.9289C15.9819 11.8398 14.6855 11.0335 13.2711 10.5454C14.786 9.50199 15.7812 7.75578 15.7812 5.78125C15.7812 2.59348 13.1878 0 10 0C6.81223 0 4.21875 2.59348 4.21875 5.78125C4.21875 7.75578 5.21402 9.50199 6.72898 10.5454C5.31453 11.0335 4.01813 11.8398 2.92895 12.9289C1.0402 14.8177 0 17.3289 0 20H1.5625C1.5625 15.3475 5.34754 11.5625 10 11.5625C14.6525 11.5625 18.4375 15.3475 18.4375 20H20C20 17.3289 18.9598 14.8177 17.0711 12.9289ZM10 10C7.67379 10 5.78125 8.1075 5.78125 5.78125C5.78125 3.455 7.67379 1.5625 10 1.5625C12.3262 1.5625 14.2188 3.455 14.2188 5.78125C14.2188 8.1075 12.3262 10 10 10Z" fill="white"/>
  </symbol>

  <symbol id="burger" viewBox="0 0 20 20">
    <path d="M19.1667 10.8161H0.833333C0.373332 10.8161 0 10.4427 0 9.98275C0 9.52275 0.373332 9.14941 0.833333 9.14941H19.1667C19.6267 9.14941 20 9.52275 20 9.98275C20 10.4427 19.6267 10.8161 19.1667 10.8161Z" fill="white"/>
    <path d="M19.1667 4.42692H0.833333C0.373332 4.42692 0 4.05359 0 3.59359C0 3.13359 0.373332 2.76025 0.833333 2.76025H19.1667C19.6267 2.76025 20 3.13359 20 3.59359C20 4.05359 19.6267 4.42692 19.1667 4.42692Z" fill="white"/>
    <path d="M19.1667 17.6667H0.833333C0.373332 17.6667 0 17.2933 0 16.8333C0 16.3733 0.373332 16 0.833333 16H19.1667C19.6267 16 20 16.3733 20 16.8333C20 17.2933 19.6267 17.6667 19.1667 17.6667Z" fill="white"/>
  </symbol>

  <symbol id="phone" viewBox="0 0 20 20">
    <g clip-path="url(#clip0)">
      <path d="M15.8061 12.3897C15.3967 11.9633 14.9028 11.7354 14.3794 11.7354C13.8602 11.7354 13.3621 11.9591 12.9357 12.3855L11.6018 13.7151C11.4921 13.656 11.3823 13.6011 11.2768 13.5463C11.1249 13.4703 10.9813 13.3985 10.8589 13.3225C9.60947 12.529 8.47399 11.4948 7.38493 10.1567C6.85729 9.48975 6.50272 8.92834 6.24523 8.35849C6.59136 8.0419 6.91217 7.71265 7.22453 7.39607C7.34272 7.27787 7.46091 7.15546 7.57911 7.03727C8.46554 6.15083 8.46554 5.00268 7.57911 4.11624L6.42673 2.96387C6.29588 2.83302 6.1608 2.69794 6.03417 2.56287C5.7809 2.30115 5.51497 2.031 5.2406 1.77773C4.83115 1.3725 4.34149 1.15723 3.82651 1.15723C3.31154 1.15723 2.81344 1.3725 2.39133 1.77773C2.38711 1.78195 2.38711 1.78195 2.38289 1.78618L0.947699 3.23403C0.407394 3.77433 0.0992508 4.43283 0.0317126 5.19685C-0.0695947 6.42943 0.293423 7.57758 0.572018 8.32894C1.25584 10.1736 2.27736 11.8831 3.80119 13.7151C5.65005 15.9228 7.87458 17.6661 10.4157 18.8944C11.3866 19.3545 12.6825 19.8991 14.1303 19.9919C14.219 19.9962 14.3118 20.0004 14.3962 20.0004C15.3713 20.0004 16.1902 19.65 16.8318 18.9535C16.8361 18.9451 16.8445 18.9409 16.8487 18.9324C17.0682 18.6665 17.3215 18.4259 17.5874 18.1684C17.7689 17.9953 17.9547 17.8138 18.1362 17.6239C18.5541 17.1891 18.7736 16.6826 18.7736 16.1634C18.7736 15.6399 18.5498 15.1376 18.1235 14.7155L15.8061 12.3897ZM17.3173 16.8345C17.313 16.8345 17.313 16.8387 17.3173 16.8345C17.1526 17.0118 16.9838 17.1722 16.8023 17.3495C16.5279 17.6112 16.2493 17.8856 15.9876 18.1937C15.5613 18.6496 15.059 18.8649 14.4005 18.8649C14.3371 18.8649 14.2696 18.8649 14.2063 18.8607C12.9526 18.7805 11.7876 18.2908 10.9138 17.8729C8.52464 16.7163 6.42673 15.0743 4.68341 12.9933C3.244 11.2584 2.28158 9.65438 1.64419 7.93215C1.25162 6.88109 1.1081 6.06219 1.17142 5.28972C1.21363 4.79585 1.40358 4.3864 1.75394 4.03604L3.19334 2.59663C3.40018 2.40246 3.61968 2.29693 3.83496 2.29693C4.10089 2.29693 4.31617 2.45734 4.45124 2.59241C4.45546 2.59663 4.45969 2.60086 4.46391 2.60508C4.7214 2.84568 4.96622 3.09473 5.22371 3.36066C5.35457 3.49574 5.48964 3.63081 5.62472 3.77011L6.77709 4.92248C7.22453 5.36992 7.22453 5.78359 6.77709 6.23103C6.65468 6.35345 6.53648 6.47586 6.41407 6.59405C6.0595 6.95707 5.72181 7.29476 5.35457 7.62401C5.34612 7.63245 5.33768 7.63667 5.33346 7.64511C4.97044 8.00813 5.03798 8.36271 5.11396 8.60331C5.11818 8.61598 5.1224 8.62864 5.12663 8.6413C5.42633 9.36734 5.84844 10.0512 6.49005 10.8658L6.49427 10.8701C7.65931 12.3052 8.88766 13.4239 10.2426 14.2807C10.4157 14.3905 10.593 14.4791 10.7618 14.5636C10.9138 14.6395 11.0573 14.7113 11.1797 14.7873C11.1966 14.7957 11.2135 14.8084 11.2304 14.8168C11.3739 14.8886 11.509 14.9224 11.6483 14.9224C11.9986 14.9224 12.2181 14.7029 12.2899 14.6311L13.7335 13.1875C13.877 13.0439 14.105 12.8709 14.3709 12.8709C14.6326 12.8709 14.8479 13.0355 14.9788 13.179C14.983 13.1832 14.983 13.1832 14.9872 13.1875L17.313 15.5133C17.7478 15.9439 17.7478 16.3871 17.3173 16.8345Z" fill="#FFF45E"/>
    </g>
    <defs>
      <clipPath id="clip0">
        <rect width="20" height="20" fill="white"/>
      </clipPath>
    </defs>
  </symbol>

  <symbol id="mail" viewBox="0 0 20 20">
    <path d="M18.2422 2.38281H1.75781C0.789766 2.38281 0 3.17172 0 4.14062V15.8594C0 16.825 0.78625 17.6172 1.75781 17.6172H18.2422C19.2078 17.6172 20 16.8309 20 15.8594V4.14062C20 3.175 19.2138 2.38281 18.2422 2.38281ZM17.9995 3.55469L10.0373 11.5169L2.00621 3.55469H17.9995ZM1.17188 15.6167V4.3777L6.81559 9.97301L1.17188 15.6167ZM2.00051 16.4453L7.64777 10.798L9.62656 12.7598C9.85563 12.987 10.2253 12.9862 10.4534 12.758L12.3828 10.8286L17.9995 16.4453H2.00051ZM18.8281 15.6167L13.2114 10L18.8281 4.38328V15.6167Z" fill="#FFF45E"/>
  </symbol>

  <symbol>

  </symbol>
</svg>
