<svg version="1.1"
     baseProfile="full"
     xmlns="http://www.w3.org/2000/svg"
     fill="none"
>
  <symbol id="map-pin" viewBox="0 0 20 20">
    <path d="M10 0C6.12297 0 2.96875 3.15422 2.96875 7.03125C2.96875 8.34117 3.3316 9.61953 4.01832 10.7286L9.59977 19.723C9.70668 19.8953 9.89504 20 10.0976 20C10.0992 20 10.1007 20 10.1023 20C10.3066 19.9984 10.4954 19.8905 10.6003 19.7152L16.0395 10.6336C16.6883 9.54797 17.0312 8.30231 17.0312 7.03125C17.0312 3.15422 13.877 0 10 0ZM15.0338 10.032L10.0887 18.2885L5.01434 10.1112C4.44273 9.18805 4.13281 8.12305 4.13281 7.03125C4.13281 3.80039 6.76914 1.16406 10 1.16406C13.2309 1.16406 15.8633 3.80039 15.8633 7.03125C15.8633 8.09066 15.5738 9.12844 15.0338 10.032Z"/>
    <path d="M10 3.51562C8.06148 3.51562 6.48438 5.09273 6.48438 7.03125C6.48438 8.95738 8.03582 10.5469 10 10.5469C11.9884 10.5469 13.5156 8.93621 13.5156 7.03125C13.5156 5.09273 11.9385 3.51562 10 3.51562ZM10 9.38281C8.7009 9.38281 7.64844 8.32684 7.64844 7.03125C7.64844 5.73891 8.70766 4.67969 10 4.67969C11.2923 4.67969 12.3477 5.73891 12.3477 7.03125C12.3477 8.30793 11.3197 9.38281 10 9.38281Z"/>
  </symbol>

  <symbol id="user" viewBox="0 0 20 20">
    <path d="M17.0711 12.9289C15.9819 11.8398 14.6855 11.0335 13.2711 10.5454C14.786 9.50199 15.7812 7.75578 15.7812 5.78125C15.7812 2.59348 13.1878 0 10 0C6.81223 0 4.21875 2.59348 4.21875 5.78125C4.21875 7.75578 5.21402 9.50199 6.72898 10.5454C5.31453 11.0335 4.01813 11.8398 2.92895 12.9289C1.0402 14.8177 0 17.3289 0 20H1.5625C1.5625 15.3475 5.34754 11.5625 10 11.5625C14.6525 11.5625 18.4375 15.3475 18.4375 20H20C20 17.3289 18.9598 14.8177 17.0711 12.9289ZM10 10C7.67379 10 5.78125 8.1075 5.78125 5.78125C5.78125 3.455 7.67379 1.5625 10 1.5625C12.3262 1.5625 14.2188 3.455 14.2188 5.78125C14.2188 8.1075 12.3262 10 10 10Z"/>
  </symbol>

  <symbol id="burger" viewBox="0 0 20 20">
    <path d="M19.1667 10.8161H0.833333C0.373332 10.8161 0 10.4427 0 9.98275C0 9.52275 0.373332 9.14941 0.833333 9.14941H19.1667C19.6267 9.14941 20 9.52275 20 9.98275C20 10.4427 19.6267 10.8161 19.1667 10.8161Z"/>
    <path d="M19.1667 4.42692H0.833333C0.373332 4.42692 0 4.05359 0 3.59359C0 3.13359 0.373332 2.76025 0.833333 2.76025H19.1667C19.6267 2.76025 20 3.13359 20 3.59359C20 4.05359 19.6267 4.42692 19.1667 4.42692Z"/>
    <path d="M19.1667 17.6667H0.833333C0.373332 17.6667 0 17.2933 0 16.8333C0 16.3733 0.373332 16 0.833333 16H19.1667C19.6267 16 20 16.3733 20 16.8333C20 17.2933 19.6267 17.6667 19.1667 17.6667Z"/>
  </symbol>

  <symbol id="phone" viewBox="0 0 20 20">
    <g clip-path="url(#clip0)">
      <path d="M15.8061 12.3897C15.3967 11.9633 14.9028 11.7354 14.3794 11.7354C13.8602 11.7354 13.3621 11.9591 12.9357 12.3855L11.6018 13.7151C11.4921 13.656 11.3823 13.6011 11.2768 13.5463C11.1249 13.4703 10.9813 13.3985 10.8589 13.3225C9.60947 12.529 8.47399 11.4948 7.38493 10.1567C6.85729 9.48975 6.50272 8.92834 6.24523 8.35849C6.59136 8.0419 6.91217 7.71265 7.22453 7.39607C7.34272 7.27787 7.46091 7.15546 7.57911 7.03727C8.46554 6.15083 8.46554 5.00268 7.57911 4.11624L6.42673 2.96387C6.29588 2.83302 6.1608 2.69794 6.03417 2.56287C5.7809 2.30115 5.51497 2.031 5.2406 1.77773C4.83115 1.3725 4.34149 1.15723 3.82651 1.15723C3.31154 1.15723 2.81344 1.3725 2.39133 1.77773C2.38711 1.78195 2.38711 1.78195 2.38289 1.78618L0.947699 3.23403C0.407394 3.77433 0.0992508 4.43283 0.0317126 5.19685C-0.0695947 6.42943 0.293423 7.57758 0.572018 8.32894C1.25584 10.1736 2.27736 11.8831 3.80119 13.7151C5.65005 15.9228 7.87458 17.6661 10.4157 18.8944C11.3866 19.3545 12.6825 19.8991 14.1303 19.9919C14.219 19.9962 14.3118 20.0004 14.3962 20.0004C15.3713 20.0004 16.1902 19.65 16.8318 18.9535C16.8361 18.9451 16.8445 18.9409 16.8487 18.9324C17.0682 18.6665 17.3215 18.4259 17.5874 18.1684C17.7689 17.9953 17.9547 17.8138 18.1362 17.6239C18.5541 17.1891 18.7736 16.6826 18.7736 16.1634C18.7736 15.6399 18.5498 15.1376 18.1235 14.7155L15.8061 12.3897ZM17.3173 16.8345C17.313 16.8345 17.313 16.8387 17.3173 16.8345C17.1526 17.0118 16.9838 17.1722 16.8023 17.3495C16.5279 17.6112 16.2493 17.8856 15.9876 18.1937C15.5613 18.6496 15.059 18.8649 14.4005 18.8649C14.3371 18.8649 14.2696 18.8649 14.2063 18.8607C12.9526 18.7805 11.7876 18.2908 10.9138 17.8729C8.52464 16.7163 6.42673 15.0743 4.68341 12.9933C3.244 11.2584 2.28158 9.65438 1.64419 7.93215C1.25162 6.88109 1.1081 6.06219 1.17142 5.28972C1.21363 4.79585 1.40358 4.3864 1.75394 4.03604L3.19334 2.59663C3.40018 2.40246 3.61968 2.29693 3.83496 2.29693C4.10089 2.29693 4.31617 2.45734 4.45124 2.59241C4.45546 2.59663 4.45969 2.60086 4.46391 2.60508C4.7214 2.84568 4.96622 3.09473 5.22371 3.36066C5.35457 3.49574 5.48964 3.63081 5.62472 3.77011L6.77709 4.92248C7.22453 5.36992 7.22453 5.78359 6.77709 6.23103C6.65468 6.35345 6.53648 6.47586 6.41407 6.59405C6.0595 6.95707 5.72181 7.29476 5.35457 7.62401C5.34612 7.63245 5.33768 7.63667 5.33346 7.64511C4.97044 8.00813 5.03798 8.36271 5.11396 8.60331C5.11818 8.61598 5.1224 8.62864 5.12663 8.6413C5.42633 9.36734 5.84844 10.0512 6.49005 10.8658L6.49427 10.8701C7.65931 12.3052 8.88766 13.4239 10.2426 14.2807C10.4157 14.3905 10.593 14.4791 10.7618 14.5636C10.9138 14.6395 11.0573 14.7113 11.1797 14.7873C11.1966 14.7957 11.2135 14.8084 11.2304 14.8168C11.3739 14.8886 11.509 14.9224 11.6483 14.9224C11.9986 14.9224 12.2181 14.7029 12.2899 14.6311L13.7335 13.1875C13.877 13.0439 14.105 12.8709 14.3709 12.8709C14.6326 12.8709 14.8479 13.0355 14.9788 13.179C14.983 13.1832 14.983 13.1832 14.9872 13.1875L17.313 15.5133C17.7478 15.9439 17.7478 16.3871 17.3173 16.8345Z" fill="#FFF45E"/>
    </g>
    <defs>
      <clipPath id="clip0">
        <rect width="20" height="20" fill="white"/>
      </clipPath>
    </defs>
  </symbol>

  <symbol id="mail" viewBox="0 0 20 20">
    <path d="M18.2422 2.38281H1.75781C0.789766 2.38281 0 3.17172 0 4.14062V15.8594C0 16.825 0.78625 17.6172 1.75781 17.6172H18.2422C19.2078 17.6172 20 16.8309 20 15.8594V4.14062C20 3.175 19.2138 2.38281 18.2422 2.38281ZM17.9995 3.55469L10.0373 11.5169L2.00621 3.55469H17.9995ZM1.17188 15.6167V4.3777L6.81559 9.97301L1.17188 15.6167ZM2.00051 16.4453L7.64777 10.798L9.62656 12.7598C9.85563 12.987 10.2253 12.9862 10.4534 12.758L12.3828 10.8286L17.9995 16.4453H2.00051ZM18.8281 15.6167L13.2114 10L18.8281 4.38328V15.6167Z" fill="#FFF45E"/>
  </symbol>

  <symbol id="pentagon" viewBox="0 0 300 320">
    <path opacity="0.2" d="M138.074 23.3691L14.5539 93.9499C33.2152 125.693 51.8765 157.437 70.5378 189.181L104.306 78.3441L138.074 23.3691ZM148.204 266.323L159.757 304.628L287.542 231.565L284.521 201.594L232.447 226.422L148.204 266.323ZM33.3929 236.53L145.716 300.904L135.408 266.678L71.7819 212.057L33.3929 236.53ZM15.4425 236.707V119.664L0.868887 94.8365C-0.908382 91.9991 0.157979 88.275 3.00161 86.5016C53.1206 58.1275 103.062 29.3986 153.003 0.847092C155.136 -0.394278 157.624 -0.216939 159.401 1.02443L292.341 77.6347C294.474 78.6987 295.718 80.6495 295.718 83.1322V192.373L299.983 234.579C300.161 237.062 298.917 239.368 296.962 240.432L159.223 319.17C157.091 320.411 154.603 320.234 152.648 318.815L19.1747 242.205C17.042 241.318 15.4425 239.19 15.4425 236.707ZM27.7056 140.59V225.535L63.9619 202.304L27.7056 140.59ZM186.416 157.26C193.347 159.565 198.679 165.417 199.923 172.866L283.455 185.102V90.2257L231.025 99.0927L186.416 106.541V157.26ZM160.468 175.171C161.001 166.836 166.51 159.92 174.153 157.437V106.009L114.259 87.3883L81.3791 195.742L160.468 175.171ZM198.146 185.102C194.947 191.663 188.193 196.097 180.373 196.097C173.264 196.097 167.043 192.373 163.667 186.875L85.2891 207.269L141.984 255.86L269.059 195.388L238.845 190.954L198.146 185.102ZM158.157 14.3248L119.59 76.216L180.728 95.1912L271.902 79.7628L158.157 14.3248Z" fill="white"/>
  </symbol>

  <symbol id="scroll" viewBox="0 0 14 34" fill="none">
    <rect x="0.75" y="0.75" width="12.5" height="20.3182" rx="6.25" stroke="#FFF45E" stroke-width="1.5"/>
    <path d="M1.55566 26.1818L7.389 31.9999L13.2223 26.1818" stroke="#FFF45E" stroke-width="1.5"/>
  </symbol>

  <symbol id="scroll-line" viewBox="0 0 2 5">
    <line x1="0.972168" y1="0.636353" x2="0.972168" y2="4.27272" stroke="#FFF45E" stroke-width="1.5"/>
  </symbol>

  <symbol id="community" viewBox="0 0 80 80">
    <path d="M44.2638 34.1799C43.6378 33.5915 42.8963 33.1397 42.0864 32.8532C41.2764 32.5666 40.4158 32.4516 39.559 32.5154C38.4457 32.5942 37.3739 32.9696 36.4548 33.6026C35.5357 34.2357 34.8028 35.1033 34.3324 36.1154C33.862 37.1274 33.6711 38.2469 33.7797 39.3577C33.8882 40.4684 34.2922 41.5298 34.9496 42.4317C35.7819 43.5414 36.2374 44.8883 36.2496 46.2754V48.7498C36.2496 49.7444 36.6447 50.6982 37.348 51.4014C38.0512 52.1047 39.0051 52.4998 39.9996 52.4998C40.9942 52.4998 41.948 52.1047 42.6513 51.4014C43.3545 50.6982 43.7496 49.7444 43.7496 48.7498V46.2748C43.7501 44.9124 44.1896 43.5865 45.0029 42.4935C45.8156 41.415 46.2536 40.1003 46.2501 38.7498C46.2488 37.8928 46.0718 37.0451 45.7302 36.2592C45.3886 35.4732 44.8895 34.7656 44.2638 34.1799ZM41.2501 48.7498C41.2501 49.0813 41.1184 49.3993 40.884 49.6337C40.6495 49.8681 40.3316 49.9998 40.0001 49.9998C39.6686 49.9998 39.3506 49.8681 39.1162 49.6337C38.8818 49.3993 38.7501 49.0813 38.7501 48.7498V47.5248H41.2501V48.7498ZM43.0034 40.9945C42.121 42.1779 41.5491 43.5635 41.3399 45.0248H38.6591C38.4363 43.5511 37.856 42.1544 36.9688 40.9567C36.4453 40.2437 36.1936 39.3672 36.2592 38.4851C36.3091 37.7788 36.558 37.101 36.977 36.5302C37.3961 35.9594 37.9682 35.5189 38.6272 35.2597C39.2862 35.0005 40.0051 34.9332 40.7007 35.0656C41.3964 35.1979 42.0403 35.5245 42.5581 36.0076C43.2338 36.6378 43.653 37.4954 43.7352 38.4158C43.8174 39.3362 43.5568 40.2545 43.0034 40.9945Z" fill="#263164"/>
    <path d="M40 31.25C40.3315 31.25 40.6495 31.1183 40.8839 30.8839C41.1183 30.6495 41.25 30.3315 41.25 30V27.5C41.25 27.1685 41.1183 26.8505 40.8839 26.6161C40.6495 26.3817 40.3315 26.25 40 26.25C39.6685 26.25 39.3505 26.3817 39.1161 26.6161C38.8817 26.8505 38.75 27.1685 38.75 27.5V30C38.75 30.3315 38.8817 30.6495 39.1161 30.8839C39.3505 31.1183 39.6685 31.25 40 31.25Z" fill="#263164"/>
    <path d="M34.9999 32.4998C35.2471 32.4998 35.4888 32.4265 35.6943 32.2891C35.8999 32.1518 36.0601 31.9566 36.1547 31.7282C36.2494 31.4997 36.2741 31.2484 36.2259 31.0059C36.1776 30.7634 36.0586 30.5407 35.8838 30.3659L34.6338 29.1159C34.3993 28.8815 34.0814 28.7498 33.7499 28.7498C33.4183 28.7498 33.1004 28.8815 32.8659 29.1159C32.6315 29.3503 32.4998 29.6683 32.4998 29.9998C32.4998 30.3313 32.6315 30.6493 32.8659 30.8837L34.1159 32.1337C34.2319 32.2499 34.3697 32.3421 34.5214 32.4049C34.6731 32.4678 34.8357 32.5 34.9999 32.4998Z" fill="#263164"/>
    <path d="M45.3659 29.1159L44.1159 30.3659C43.8815 30.6003 43.7498 30.9183 43.7498 31.2498C43.7498 31.5813 43.8815 31.8993 44.1159 32.1337C44.3504 32.3681 44.6683 32.4998 44.9999 32.4998C45.3314 32.4998 45.6493 32.3681 45.8838 32.1337L47.1338 30.8837C47.2498 30.7676 47.3419 30.6298 47.4047 30.4782C47.4676 30.3265 47.4999 30.1639 47.4999 29.9998C47.4999 29.8356 47.4676 29.6731 47.4047 29.5214C47.3419 29.3698 47.2498 29.232 47.1338 29.1159C47.0177 28.9998 46.8799 28.9077 46.7282 28.8449C46.5766 28.7821 46.414 28.7498 46.2499 28.7498C46.0857 28.7498 45.9231 28.7821 45.7715 28.8449C45.6198 28.9077 45.482 28.9998 45.3659 29.1159Z" fill="#263164"/>
    <path d="M77.5 39.9999C77.4976 38.2044 76.8522 36.4692 75.6807 35.1086C74.5092 33.748 72.8891 32.852 71.1139 32.583L70.0818 24.3271C72.3253 23.5179 74.2539 22.0173 75.5898 20.0417C76.9256 18.066 77.5997 15.7172 77.515 13.3338C77.4302 10.9504 76.591 8.65542 75.1181 6.77962C73.6453 4.90383 71.615 3.54406 69.3197 2.89627C67.0245 2.24848 64.5828 2.34613 62.3466 3.17513C60.1104 4.00414 58.1952 5.52169 56.8768 7.50911C55.5585 9.49653 54.9052 11.8512 55.011 14.2338C55.1169 16.6163 55.9764 18.9038 57.4657 20.7665L51.4531 26.7788C48.6012 24.2983 45.0202 22.8121 41.25 22.5444V16.1249C42.37 15.8963 43.406 15.3648 44.245 14.5884C45.084 13.8119 45.694 12.8202 46.0087 11.7212C46.3232 10.6221 46.3304 9.45784 46.0293 8.35502C45.7282 7.25221 45.1304 6.2531 44.3009 5.46641C43.4715 4.67972 42.4422 4.1356 41.325 3.89324C40.2078 3.65089 39.0455 3.71959 37.9646 4.09187C36.8838 4.46415 35.9257 5.12575 35.1947 6.00467C34.4637 6.88359 33.9878 7.94617 33.8187 9.07678L24.8726 12.0582C24.5035 9.60517 23.3351 7.34256 21.5487 5.62145C19.7623 3.90035 17.4577 2.81699 14.9927 2.53948C12.5276 2.26197 10.0399 2.80584 7.91551 4.08669C5.79114 5.36753 4.14892 7.31373 3.24368 9.62329C2.33844 11.9328 2.22079 14.4766 2.90901 16.8599C3.59722 19.2431 5.0528 21.3326 7.04988 22.804C9.04697 24.2755 11.4739 25.0466 13.954 24.9978C16.4342 24.949 18.8289 24.083 20.7665 22.5341L26.6161 28.3838C26.6706 28.4379 26.7301 28.4869 26.7936 28.5302C24.3045 31.3846 22.8131 34.9722 22.5451 38.7499H17.3939C17.1555 37.3399 16.5191 36.0275 15.5596 34.9672C14.6 33.907 13.3574 33.1432 11.9781 32.7658C10.5988 32.3884 9.1404 32.4132 7.77474 32.8372C6.40909 33.2613 5.19312 34.0669 4.27017 35.1591C3.34721 36.2514 2.75574 37.5847 2.56546 39.0019C2.37519 40.4192 2.59404 41.8613 3.19624 43.1583C3.79843 44.4553 4.75885 45.5531 5.9643 46.3223C7.16976 47.0916 8.56999 47.5001 9.99996 47.4999C10.0912 47.4999 10.1817 47.4963 10.2723 47.493L12.177 55.1123C9.71595 55.4565 7.43786 56.6051 5.69759 58.379C3.95732 60.1528 2.85257 62.4525 2.55545 64.9197C2.25833 67.3868 2.78551 69.883 4.05487 72.0194C5.32423 74.1557 7.2645 75.8123 9.57344 76.731C11.8824 77.6497 14.4303 77.779 16.8204 77.0987C19.2105 76.4185 21.3085 74.9669 22.7876 72.97C24.2667 70.9731 25.0439 68.5431 24.9981 66.0585C24.9522 63.574 24.0859 61.1743 22.5342 59.2333L28.5467 53.221C31.7243 55.9804 35.7913 57.4998 39.9998 57.4998C44.2083 57.4998 48.2753 55.9804 51.4529 53.221L57.4654 59.2333C56.4072 60.5521 55.6612 62.0933 55.2833 63.7414C54.9054 65.3896 54.9054 67.1018 55.2834 68.7499H46.125C45.8152 67.2324 44.953 65.8839 43.7055 64.9659C42.458 64.0479 40.9141 63.6259 39.3731 63.7816C37.8321 63.9372 36.4037 64.6595 35.365 65.8085C34.3263 66.9574 33.7512 68.4511 33.7512 69.9999C33.7512 71.5488 34.3263 73.0424 35.365 74.1914C36.4037 75.3403 37.8321 76.0626 39.3731 76.2183C40.9141 76.3739 42.458 75.9519 43.7055 75.0339C44.953 74.1159 45.8152 72.7675 46.125 71.2499H56.177C57.0351 72.9786 58.3236 74.4574 59.9186 75.5442C61.5135 76.6309 63.3612 77.289 65.284 77.4551C67.2068 77.6213 69.14 77.2899 70.8977 76.4929C72.6554 75.6958 74.1785 74.4599 75.3205 72.904C76.4624 71.3482 77.1848 69.5246 77.4182 67.6088C77.6516 65.693 77.3882 63.7494 76.6532 61.9648C75.9182 60.1803 74.7365 58.6149 73.2216 57.4191C71.7066 56.2233 69.9095 55.4375 68.0031 55.1371L70.8873 47.4457C72.7088 47.2265 74.387 46.3482 75.6053 44.9765C76.8235 43.6047 77.4975 41.8345 77.5 39.9999ZM40 73.7499C39.2583 73.7499 38.5333 73.53 37.9166 73.1179C37.2999 72.7059 36.8192 72.1202 36.5354 71.435C36.2516 70.7497 36.1773 69.9958 36.322 69.2683C36.4667 68.5409 36.8239 67.8727 37.3483 67.3483C37.8728 66.8238 38.5409 66.4667 39.2684 66.322C39.9958 66.1773 40.7498 66.2515 41.435 66.5354C42.1202 66.8192 42.7059 67.2998 43.118 67.9165C43.53 68.5332 43.75 69.2582 43.75 69.9999C43.7488 70.9941 43.3533 71.9473 42.6503 72.6503C41.9473 73.3533 40.9942 73.7487 40 73.7499ZM59.2334 57.4657L53.2211 51.453C55.7016 48.6012 57.1878 45.0201 57.4554 41.2499H62.6067C62.8549 42.7021 63.5243 44.0493 64.5316 45.1244C65.539 46.1994 66.8399 46.9548 68.2729 47.2968L65.3701 55.0376C63.127 55.2117 60.9884 56.0579 59.2334 57.4657ZM75 39.9999C75 40.9888 74.7067 41.9555 74.1573 42.7778C73.6079 43.6 72.827 44.2409 71.9134 44.6193C70.9997 44.9977 69.9944 45.0968 69.0245 44.9038C68.0546 44.7109 67.1637 44.2347 66.4644 43.5354C65.7652 42.8362 65.289 41.9453 65.096 40.9754C64.9031 40.0055 65.0021 39.0001 65.3806 38.0865C65.759 37.1729 66.3999 36.392 67.2221 35.8426C68.0444 35.2932 69.0111 34.9999 70 34.9999C71.3256 35.0014 72.5965 35.5287 73.5339 36.466C74.4712 37.4034 74.9985 38.6743 75 39.9999ZM68.6006 32.6329C67.0975 32.9211 65.7182 33.6612 64.6471 34.7543C63.5759 35.8473 62.8638 37.2413 62.6061 38.7499H57.4548C57.1871 34.9797 55.701 31.3987 53.2204 28.5468L59.2328 22.5343C60.4017 23.4746 61.7482 24.1698 63.1918 24.5782C64.6354 24.9867 66.1464 25.1001 67.6348 24.9116L68.6006 32.6329ZM63.75 13.7499C63.75 13.2555 63.8966 12.7721 64.1713 12.361C64.446 11.9499 64.8364 11.6294 65.2933 11.4402C65.7501 11.251 66.2527 11.2015 66.7377 11.2979C67.2226 11.3944 67.6681 11.6325 68.0177 11.9821C68.3674 12.3318 68.6055 12.7772 68.7019 13.2622C68.7984 13.7471 68.7489 14.2498 68.5597 14.7066C68.3704 15.1634 68.05 15.5539 67.6389 15.8286C67.2278 16.1033 66.7444 16.2499 66.25 16.2499C65.5872 16.2491 64.9517 15.9855 64.4831 15.5168C64.0144 15.0481 63.7507 14.4127 63.75 13.7499ZM63.75 18.7499H68.75C69.3588 18.7509 69.9463 18.9738 70.4026 19.3769C70.8589 19.7799 71.1525 20.3355 71.2286 20.9396C69.7671 21.9554 68.0298 22.4999 66.25 22.4999C64.4701 22.4999 62.7329 21.9554 61.2714 20.9396C61.3474 20.3355 61.6411 19.7799 62.0973 19.3769C62.5536 18.9738 63.1412 18.7509 63.75 18.7499ZM66.25 4.9999C67.878 4.99888 69.4739 5.45236 70.8582 6.30926C72.2424 7.16617 73.3599 8.39248 74.085 9.85013C74.81 11.3078 75.1137 12.9389 74.9619 14.5598C74.8101 16.1807 74.2088 17.7271 73.2257 19.0247C72.6435 17.859 71.6312 16.9649 70.4025 16.5312C70.9072 15.7786 71.198 14.903 71.2436 13.9979C71.2893 13.0929 71.0881 12.1925 70.6616 11.3929C70.2351 10.5934 69.5994 9.92475 68.8223 9.45854C68.0453 8.99233 67.1561 8.74606 66.25 8.74606C65.3438 8.74606 64.4546 8.99233 63.6776 9.45854C62.9005 9.92475 62.2648 10.5934 61.8383 11.3929C61.4118 12.1925 61.2107 13.0929 61.2563 13.9979C61.302 14.903 61.5927 15.7786 62.0975 16.5312C60.8688 16.9648 59.8566 17.8586 59.2742 19.0241C58.2913 17.7264 57.6902 16.1801 57.5385 14.5593C57.3868 12.9385 57.6905 11.3075 58.4155 9.84999C59.1405 8.39245 60.258 7.16622 61.6421 6.30935C63.0262 5.45247 64.6221 4.99897 66.25 4.9999ZM40 6.2499C40.7416 6.2499 41.4667 6.46984 42.0834 6.88189C42.7 7.29395 43.1807 7.87962 43.4645 8.56484C43.7483 9.25006 43.8226 10.0041 43.6779 10.7315C43.5332 11.4589 43.1761 12.1271 42.6516 12.6516C42.1272 13.176 41.459 13.5332 40.7316 13.6778C40.0041 13.8225 39.2501 13.7483 38.5649 13.4645C37.8797 13.1806 37.294 12.7 36.882 12.0833C36.4699 11.4666 36.25 10.7416 36.25 9.9999C36.2511 9.0057 36.6466 8.05254 37.3496 7.34953C38.0526 6.64652 39.0058 6.25106 40 6.2499ZM4.99996 13.7499C4.99881 12.3614 5.32809 10.9926 5.96059 9.75661C6.5931 8.52058 7.51067 7.45282 8.63747 6.64156C9.76428 5.8303 11.068 5.29885 12.4408 5.09111C13.8136 4.88337 15.2162 5.00531 16.5326 5.44686C17.849 5.88841 19.0414 6.63689 20.0113 7.63044C20.9811 8.62399 21.7007 9.83409 22.1104 11.1607C22.5201 12.4874 22.6082 13.8925 22.3674 15.2599C22.1266 16.6273 21.5639 17.9178 20.7257 19.0247C20.1435 17.859 19.1312 16.9649 17.9025 16.5312C18.4072 15.7786 18.698 14.903 18.7436 13.9979C18.7893 13.0929 18.5881 12.1925 18.1616 11.3929C17.7351 10.5934 17.0994 9.92475 16.3223 9.45854C15.5453 8.99233 14.6561 8.74606 13.75 8.74606C12.8438 8.74606 11.9546 8.99233 11.1776 9.45854C10.4005 9.92475 9.76478 10.5934 9.3383 11.3929C8.91183 12.1925 8.71066 13.0929 8.75631 13.9979C8.80196 14.903 9.0927 15.7786 9.59746 16.5312C8.36881 16.9648 7.35656 17.8586 6.77418 19.0241C5.62164 17.5075 4.99837 15.6547 4.99996 13.7499ZM11.25 13.7499C11.25 13.2555 11.3966 12.7721 11.6713 12.361C11.946 11.9499 12.3364 11.6294 12.7933 11.4402C13.2501 11.251 13.7527 11.2015 14.2377 11.2979C14.7226 11.3944 15.1681 11.6325 15.5177 11.9821C15.8674 12.3318 16.1055 12.7772 16.2019 13.2622C16.2984 13.7471 16.2489 14.2498 16.0597 14.7066C15.8704 15.1634 15.55 15.5539 15.1389 15.8286C14.7278 16.1033 14.2444 16.2499 13.75 16.2499C13.0872 16.2491 12.4517 15.9855 11.9831 15.5168C11.5144 15.0481 11.2507 14.4127 11.25 13.7499ZM8.77137 20.9396C8.8474 20.3355 9.14106 19.7799 9.59732 19.3769C10.0536 18.9738 10.6412 18.7509 11.25 18.7499H16.25C16.8588 18.7509 17.4463 18.9738 17.9026 19.3769C18.3589 19.7799 18.6525 20.3355 18.7286 20.9396C17.2671 21.9554 15.5298 22.4999 13.75 22.4999C11.9701 22.4999 10.2329 21.9554 8.77137 20.9396ZM22.5342 20.7665C23.9347 19.0207 24.7795 16.8951 24.9597 14.6643L33.9753 11.6591C34.2834 12.7707 34.8921 13.7757 35.7345 14.5636C36.5769 15.3515 37.6203 15.8917 38.75 16.1249V22.5458C34.9722 22.8138 31.3847 24.3052 28.5303 26.7943C28.487 26.7308 28.438 26.6714 28.3839 26.6168L22.5342 20.7665ZM4.99996 39.9999C4.99996 39.011 5.29321 38.0443 5.84262 37.2221C6.39202 36.3998 7.17292 35.7589 8.08655 35.3805C9.00018 35.0021 10.0055 34.9031 10.9754 35.096C11.9453 35.2889 12.8362 35.7651 13.5355 36.4644C14.2348 37.1636 14.711 38.0546 14.9039 39.0245C15.0968 39.9944 14.9978 40.9997 14.6194 41.9133C14.2409 42.827 13.6001 43.6078 12.7778 44.1573C11.9556 44.7067 10.9889 44.9999 9.99996 44.9999C8.67434 44.9984 7.40343 44.4712 6.46607 43.5338C5.52871 42.5964 5.00145 41.3255 4.99996 39.9999ZM17.3939 41.2499H22.5451C22.8128 45.0201 24.2989 48.6012 26.7795 51.453L20.7672 57.4655C19.0408 56.0804 16.9424 55.2384 14.7375 55.0458L12.7218 46.9862C13.9288 46.5136 14.9932 45.7372 15.8118 44.7321C16.6304 43.7271 17.1754 42.5276 17.3939 41.2499ZM8.77137 73.4396C8.8474 72.8356 9.14106 72.28 9.59732 71.8769C10.0536 71.4738 10.6412 71.2509 11.25 71.2499H16.25C16.8588 71.2509 17.4463 71.4738 17.9026 71.8769C18.3589 72.28 18.6525 72.8356 18.7286 73.4396C17.2671 74.4554 15.5298 74.9999 13.75 74.9999C11.9701 74.9999 10.2329 74.4554 8.77137 73.4396ZM11.25 66.2499C11.25 65.7555 11.3966 65.2721 11.6713 64.861C11.946 64.4499 12.3364 64.1294 12.7933 63.9402C13.2501 63.751 13.7527 63.7015 14.2377 63.7979C14.7226 63.8944 15.1681 64.1325 15.5177 64.4821C15.8674 64.8318 16.1055 65.2772 16.2019 65.7622C16.2984 66.2471 16.2489 66.7498 16.0597 67.2066C15.8704 67.6634 15.55 68.0539 15.1389 68.3286C14.7278 68.6033 14.2444 68.7499 13.75 68.7499C13.0872 68.7491 12.4517 68.4855 11.9831 68.0168C11.5144 67.5481 11.2507 66.9127 11.25 66.2499ZM20.7257 71.5247C20.1435 70.359 19.1312 69.4649 17.9025 69.0312C18.4072 68.2786 18.698 67.403 18.7436 66.4979C18.7893 65.5929 18.5881 64.6925 18.1616 63.8929C17.7351 63.0934 17.0994 62.4247 16.3223 61.9585C15.5453 61.4923 14.6561 61.2461 13.75 61.2461C12.8438 61.2461 11.9546 61.4923 11.1776 61.9585C10.4005 62.4247 9.76478 63.0934 9.3383 63.8929C8.91183 64.6925 8.71066 65.5929 8.75631 66.4979C8.80196 67.403 9.0927 68.2786 9.59746 69.0312C8.36881 69.4648 7.35656 70.3586 6.77418 71.5241C5.79116 70.2259 5.18991 68.6791 5.03808 67.0578C4.88625 65.4365 5.18986 63.805 5.91475 62.3469C6.63964 60.8887 7.75705 59.6618 9.14126 58.8041C10.5255 57.9464 12.1216 57.492 13.75 57.492C15.3784 57.492 16.9745 57.9464 18.3587 58.8041C19.7429 59.6618 20.8603 60.8887 21.5852 62.3469C22.3101 63.805 22.6137 65.4365 22.4618 67.0578C22.31 68.6791 21.7088 70.2259 20.7257 71.5241V71.5247ZM25 39.9999C25 37.0332 25.8797 34.1331 27.5279 31.6664C29.1761 29.1996 31.5188 27.277 34.2597 26.1417C37.0006 25.0064 40.0166 24.7094 42.9263 25.2881C45.836 25.8669 48.5088 27.2955 50.6066 29.3933C52.7044 31.4911 54.133 34.1638 54.7117 37.0736C55.2905 39.9833 54.9935 42.9993 53.8582 45.7402C52.7228 48.481 50.8003 50.8237 48.3335 52.472C45.8668 54.1202 42.9667 54.9999 40 54.9999C36.0231 54.9954 32.2104 53.4137 29.3983 50.6016C26.5862 47.7895 25.0044 43.9768 25 39.9999ZM61.2714 73.4396C61.3474 72.8356 61.6411 72.28 62.0973 71.8769C62.5536 71.4738 63.1412 71.2509 63.75 71.2499H68.75C69.3588 71.2509 69.9463 71.4738 70.4026 71.8769C70.8589 72.28 71.1525 72.8356 71.2286 73.4396C69.7671 74.4554 68.0298 74.9999 66.25 74.9999C64.4701 74.9999 62.7329 74.4554 61.2714 73.4396ZM63.75 66.2499C63.75 65.7555 63.8966 65.2721 64.1713 64.861C64.446 64.4499 64.8364 64.1294 65.2933 63.9402C65.7501 63.751 66.2527 63.7015 66.7377 63.7979C67.2226 63.8944 67.6681 64.1325 68.0177 64.4821C68.3674 64.8318 68.6055 65.2772 68.7019 65.7622C68.7984 66.2471 68.7489 66.7498 68.5597 67.2066C68.3704 67.6634 68.05 68.0539 67.6389 68.3286C67.2278 68.6033 66.7444 68.7499 66.25 68.7499C65.5872 68.7491 64.9517 68.4855 64.4831 68.0168C64.0144 67.5481 63.7507 66.9127 63.75 66.2499ZM75 66.2499C75.0017 68.155 74.3784 70.008 73.2257 71.5247C72.6435 70.359 71.6312 69.4649 70.4025 69.0312C70.9072 68.2786 71.198 67.403 71.2436 66.4979C71.2893 65.5929 71.0881 64.6925 70.6616 63.8929C70.2351 63.0934 69.5994 62.4247 68.8223 61.9585C68.0453 61.4923 67.1561 61.2461 66.25 61.2461C65.3438 61.2461 64.4546 61.4923 63.6776 61.9585C62.9005 62.4247 62.2648 63.0934 61.8383 63.8929C61.4118 64.6925 61.2107 65.5929 61.2563 66.4979C61.302 67.403 61.5927 68.2786 62.0975 69.0312C60.8688 69.4648 59.8566 70.3586 59.2742 71.5241C58.4372 70.4173 57.8755 69.1271 57.6355 67.7603C57.3955 66.3935 57.4842 64.9892 57.8941 63.6634C58.304 62.3376 59.0235 61.1284 59.993 60.1355C60.9626 59.1427 62.1544 58.3948 63.4701 57.9535C64.7858 57.5122 66.1876 57.3903 67.5597 57.5978C68.9318 57.8052 70.2349 58.3362 71.3614 59.1467C72.4878 59.9572 73.4052 61.0241 74.0379 62.2592C74.6706 63.4943 75.0003 64.8622 75 66.2499Z" fill="#263164"/>
  </symbol>

  <symbol id="virtual-office" viewBox="0 0 80 80">
    <g clip-path="url(#clip0)">
      <path d="M51.1186 14.8458C51.1186 14.1986 50.5941 13.6741 49.9469 13.6741H30.0525C29.4053 13.6741 28.8808 14.1986 28.8808 14.8458C28.8808 15.493 29.4055 16.0175 30.0525 16.0175H49.9467C50.5941 16.0175 51.1186 15.493 51.1186 14.8458Z" fill="#263164"/>
      <path d="M49.7569 21.5638C49.7569 20.9166 49.2323 20.3921 48.5851 20.3921H31.4145C30.7673 20.3921 30.2428 20.9166 30.2428 21.5638C30.2428 22.211 30.7675 22.7355 31.4145 22.7355H48.5851C49.2323 22.7357 49.7569 22.2112 49.7569 21.5638Z" fill="#263164"/>
      <path d="M47.5515 27.187H32.4485C31.8013 27.187 31.2768 27.7115 31.2768 28.3587C31.2768 29.0059 31.8015 29.5304 32.4485 29.5304H47.5515C48.1987 29.5304 48.7232 29.0059 48.7232 28.3587C48.7232 27.7115 48.1987 27.187 47.5515 27.187Z" fill="#263164"/>
      <path d="M17.6174 19.768C17.7402 20.3123 18.2236 20.682 18.7592 20.682C18.8445 20.682 18.9314 20.6725 19.0183 20.653C19.6495 20.5105 20.046 19.8833 19.9035 19.2519L19.2384 16.305C17.622 9.14094 23.0724 2.34344 30.4006 2.34344H49.5994C56.9431 2.34344 62.3747 9.15625 60.7614 16.305L60.1055 19.2123C59.9631 19.8436 60.3594 20.4708 60.9908 20.6133C61.6222 20.7559 62.2494 20.3595 62.3917 19.728L63.0477 16.8206C64.995 8.18969 58.4285 0 49.5994 0H30.4006C21.5525 0 15.0089 8.20812 16.9524 16.8209L17.6174 19.768Z" fill="#263164"/>
      <path d="M61.419 41.7181H60.4488C58.194 41.7181 56.3593 43.5526 56.3593 45.8076C56.3593 46.7704 55.5762 47.5535 54.6133 47.5535H46.9899L47.4529 44.427H49.6443C53.8682 44.427 57.4676 41.5493 58.3974 37.4292L61.1822 25.0882C61.3246 24.4568 60.9283 23.8296 60.2971 23.6871C59.6649 23.5457 59.0387 23.9409 58.896 24.5723L56.1112 36.9134C55.4243 39.9574 52.7651 42.0835 49.6443 42.0835H30.3555C27.2347 42.0835 24.5754 39.9574 23.8885 36.9132L21.109 24.5959C20.9665 23.9648 20.3399 23.5688 19.708 23.7107C19.0768 23.8532 18.6804 24.4804 18.8229 25.1118L21.6024 37.429C22.5321 41.5493 26.1315 44.427 30.3554 44.427H32.5468L33.0097 47.5535H25.3863C24.4236 47.5535 23.6404 46.7704 23.6404 45.8076C23.6404 43.5528 21.8058 41.7181 19.551 41.7181H18.5808C16.326 41.7181 14.4913 43.5526 14.4913 45.8076V48.0207C14.4913 52.7376 18.3288 56.5751 23.0457 56.5751H31.8643V56.8879C31.8643 58.9309 33.5263 60.5931 35.5693 60.5931H35.8983V68.1929H26.7901C24.3554 68.1929 22.2961 69.8265 21.6483 72.055C19.8871 72.4862 18.576 74.0773 18.576 75.9695C18.576 78.1918 20.3841 80.0001 22.6066 80.0001C24.8291 80.0001 26.6372 78.192 26.6372 75.9695C26.6372 74.2712 25.5808 72.8159 24.091 72.2234C24.5813 71.2257 25.6051 70.5364 26.7901 70.5364H38.828V72.1131C37.1754 72.6162 35.9691 74.1545 35.9691 75.9695C35.9691 78.1918 37.7774 80 39.9999 80C42.2222 80 44.0305 78.1918 44.0305 75.9693C44.0305 74.1543 42.8244 72.6162 41.1718 72.1131V70.5364H53.2096C54.3946 70.5364 55.4183 71.2256 55.9087 72.2234C54.419 72.8159 53.3626 74.2712 53.3626 75.9695C53.3626 78.1918 55.1707 80.0001 57.3932 80.0001C59.6157 80.0001 61.424 78.192 61.424 75.9695C61.424 74.0773 60.1127 72.4862 58.3515 72.055C57.7037 69.8264 55.6446 68.1929 53.2097 68.1929H44.1016V60.5931H44.4305C46.4735 60.5931 48.1357 58.9309 48.1357 56.8879V56.5751H56.9543C61.6712 56.5751 65.5088 52.7376 65.5088 48.0207V45.8076C65.5083 43.5526 63.6738 41.7181 61.419 41.7181ZM24.2938 75.9693C24.2938 76.8996 23.5369 77.6564 22.6068 77.6564C21.6765 77.6564 20.9197 76.8996 20.9197 75.9693C20.9197 75.039 21.6765 74.2823 22.6068 74.2823C23.5371 74.2823 24.2938 75.0392 24.2938 75.9693ZM57.3929 74.2823C58.3232 74.2823 59.0801 75.039 59.0801 75.9693C59.0801 76.8996 58.3232 77.6564 57.3929 77.6564C56.4626 77.6564 55.7058 76.8996 55.7058 75.9693C55.7058 75.0392 56.4626 74.2823 57.3929 74.2823ZM45.0837 44.427L44.6207 47.5535H35.379L34.916 44.427H45.0837ZM41.6869 75.9693C41.6869 76.8996 40.9302 77.6564 39.9999 77.6564C39.0696 77.6564 38.3129 76.8996 38.3129 75.9693C38.3129 75.039 39.0697 74.2823 39.9999 74.2823C40.9301 74.2823 41.6869 75.0392 41.6869 75.9693ZM41.7577 68.1928H38.2421V60.5929H41.7577V68.1928ZM45.7918 56.8878C45.7918 57.6385 45.181 58.2493 44.4302 58.2493H35.5694C34.8186 58.2493 34.2079 57.6385 34.2079 56.8878V56.5749H45.7918V56.8878ZM63.1647 48.0207C63.1647 51.4453 60.3785 54.2315 56.9538 54.2315H23.0457C19.621 54.2315 16.8349 51.4453 16.8349 48.0207V45.8076C16.8349 44.8448 17.6182 44.0617 18.5808 44.0617H19.551C20.5136 44.0617 21.2968 44.8448 21.2968 45.8076C21.2968 48.0624 23.1313 49.8971 25.3863 49.8971H54.613C56.8679 49.8971 58.7026 48.0626 58.7026 45.8076C58.7026 44.8448 59.4857 44.0617 60.4485 44.0617H61.4186C62.3815 44.0617 63.1646 44.8448 63.1646 45.8076V48.0207H63.1647Z" fill="#263164"/>
    </g>
    <defs>
      <clipPath id="clip0">
        <rect width="80" height="80" fill="white"/>
      </clipPath>
    </defs>
  </symbol>

  <symbol id="clock-24" viewBox="0 0 80 80">
    <path d="M78.6667 72.0001H74.6667V46.6668C74.6662 45.9305 74.0687 45.334 73.3324 45.3345C72.8979 45.3348 72.4907 45.5468 72.2414 45.9028L53.5747 72.5695C53.1527 73.173 53.2999 74.0043 53.9034 74.4261C54.1272 74.5826 54.3935 74.6666 54.6667 74.6668H72V78.6668C72 79.4031 72.597 80.0001 73.3334 80.0001C74.0697 80.0001 74.6667 79.4031 74.6667 78.6668V74.6668H78.6667C79.403 74.6668 80 74.0698 80 73.3335C80 72.5971 79.403 72.0001 78.6667 72.0001ZM72 72.0001H57.2267L72 50.8961V72.0001Z" fill="#263164"/>
    <path d="M54.6667 77.3333H38.8813L53.5573 60.052C53.5907 60.0124 53.6218 59.971 53.6507 59.928C56.4117 55.8417 55.492 50.3092 51.5573 47.336C46.7732 43.8985 40.1082 44.9904 36.6708 49.7745C35.3673 51.5887 34.6663 53.7662 34.6667 56C34.6667 56.7364 35.2637 57.3334 36 57.3334C36.7363 57.3334 37.3333 56.7364 37.3333 56C37.3328 51.5817 40.9143 47.9997 45.3325 47.9992C47.0072 47.999 48.6397 48.5244 50 49.5014C52.7562 51.6132 53.398 55.5025 51.4667 58.388L34.984 77.804C34.5075 78.3655 34.5765 79.2068 35.138 79.6833C35.3788 79.8877 35.6842 79.9998 36 80H54.6667C55.403 80 56 79.403 56 78.6667C56 77.9303 55.403 77.3333 54.6667 77.3333Z" fill="#263164"/>
    <path d="M36.0293 70.692C36.0572 69.9562 35.483 69.3372 34.7472 69.3093C34.747 69.3093 34.7468 69.3093 34.7467 69.3093C17.3517 68.6637 3.39017 54.7272 2.71333 37.3333H8C8.73633 37.3333 9.33333 36.7363 9.33333 36C9.33333 35.2637 8.73633 34.6667 8 34.6667H2.71333C3.3805 17.3035 17.3033 3.38117 34.6667 2.71467V6.66667C34.6667 7.403 35.2637 8 36 8C36.7363 8 37.3333 7.403 37.3333 6.66667V2.71467C54.459 3.377 68.281 16.938 69.2693 34.048L64.0693 28.848C63.5397 28.3363 62.6957 28.351 62.184 28.8807C61.685 29.3973 61.685 30.2165 62.184 30.7333L69.6267 38.176C69.7668 38.3457 69.9475 38.4772 70.152 38.5587C70.2042 38.5743 70.2572 38.5873 70.3107 38.5973C70.4022 38.6303 70.4968 38.6532 70.5933 38.6653C70.6067 38.6653 70.6187 38.6653 70.632 38.6653C70.6453 38.6653 70.6573 38.6653 70.6693 38.6653C70.7708 38.6577 70.8712 38.638 70.968 38.6067C71.0228 38.6 71.0772 38.5898 71.1307 38.576C71.3112 38.5118 71.4755 38.409 71.612 38.2747L79.156 30.7333C79.6675 30.2037 79.653 29.3597 79.1233 28.848C78.6067 28.349 77.7875 28.349 77.2707 28.848L71.9413 34.1733C70.9888 15.0617 55.23 0.0468333 36.0947 0.0186667C36.0613 0.0173333 36.0333 0 36 0C35.9667 0 35.9387 0.0173333 35.9053 0.0186667C16.097 0.0458333 0.0458333 16.097 0.0186667 35.9053C0.0186667 35.9387 0 35.9667 0 36C0 36.0333 0.0173333 36.0613 0.0186667 36.0947C0.0518333 55.4142 15.3418 71.2563 34.648 71.9747H34.6973C35.4138 71.9745 36.0022 71.408 36.0293 70.692Z" fill="#263164"/>
    <path d="M53.9135 18.0867C53.3928 17.5662 52.5488 17.5662 52.0282 18.0867L37.7002 32.4133C36.6177 31.9307 35.3812 31.9307 34.2989 32.4133L27.5149 25.6293C26.9852 25.1178 26.141 25.1325 25.6295 25.6622C25.1305 26.1788 25.1305 26.998 25.6295 27.5147L32.4002 34.2853C31.4495 36.2753 32.2922 38.6593 34.2824 39.6098C35.8099 40.3395 37.6315 40.0267 38.8282 38.8293C40.0314 37.6363 40.3412 35.8097 39.5989 34.2867L53.9135 19.972C54.434 19.4513 54.434 18.6073 53.9135 18.0867ZM36.9432 36.9423C36.943 36.9425 36.943 36.9425 36.9429 36.9427C36.4155 37.4468 35.5849 37.4468 35.0575 36.9427C34.5367 36.422 34.5367 35.5778 35.0572 35.057C35.5779 34.5362 36.422 34.5362 36.9429 35.0567C37.4637 35.5773 37.4637 36.4217 36.9432 36.9423Z" fill="#263164"/>
  </symbol>

  <symbol id="sport" viewBox="0 0 80 80">
    <path d="M77.2656 32.5781H75.3125V24.6875C75.3125 22.8352 73.8055 21.3281 71.9531 21.3281H66.9531C66.5992 21.3281 66.2581 21.3839 65.9375 21.4859V21.0156C65.9375 18.4741 63.8697 16.4062 61.3281 16.4062H55.0781C52.5366 16.4062 50.4688 18.4741 50.4688 21.0156V34.8111H29.5312V21.0156C29.5312 18.4741 27.4634 16.4062 24.9219 16.4062H18.6719C16.1303 16.4062 14.0625 18.4741 14.0625 21.0156V21.4859C13.7419 21.3839 13.4008 21.3281 13.0469 21.3281H8.04688C6.19453 21.3281 4.6875 22.8352 4.6875 24.6875V26.2011C4.6875 26.8483 5.21219 27.373 5.85938 27.373C6.50656 27.373 7.03125 26.8483 7.03125 26.2011V24.6875C7.03125 24.1275 7.48688 23.6719 8.04688 23.6719H13.0469C13.6069 23.6719 14.0625 24.1275 14.0625 24.6875V55.3125C14.0625 55.8725 13.6069 56.3281 13.0469 56.3281H8.04688C7.48688 56.3281 7.03125 55.8725 7.03125 55.3125V31.2155C7.03125 30.5683 6.50656 30.0436 5.85938 30.0436C5.21219 30.0436 4.6875 30.5683 4.6875 31.2155V32.5781H2.73438C1.22672 32.5781 0 33.8048 0 35.3125V44.6875C0 46.1952 1.22672 47.4219 2.73438 47.4219H4.6875V55.3125C4.6875 57.1648 6.19453 58.6719 8.04688 58.6719H13.0469C13.4008 58.6719 13.7419 58.6161 14.0625 58.5141V58.9844C14.0625 61.5259 16.1303 63.5938 18.6719 63.5938H24.9219C27.4634 63.5938 29.5312 61.5259 29.5312 58.9844V45.1889H31.2369C31.8841 45.1889 32.4087 44.6642 32.4087 44.017C32.4087 43.3698 31.8841 42.8452 31.2369 42.8452H29.5312V37.1548H50.4688V42.8452H36.3169C35.6697 42.8452 35.145 43.3698 35.145 44.017C35.145 44.6642 35.6697 45.1889 36.3169 45.1889H50.4688V58.9844C50.4688 61.5259 52.5366 63.5938 55.0781 63.5938H61.3281C63.8697 63.5938 65.9375 61.5259 65.9375 58.9844V58.5141C66.2581 58.6161 66.5992 58.6719 66.9531 58.6719H71.9531C73.8055 58.6719 75.3125 57.1648 75.3125 55.3125V53.73C75.3125 53.0828 74.7878 52.5581 74.1406 52.5581C73.4934 52.5581 72.9688 53.0828 72.9688 53.73V55.3125C72.9688 55.8725 72.5131 56.3281 71.9531 56.3281H66.9531C66.3931 56.3281 65.9375 55.8725 65.9375 55.3125V24.6875C65.9375 24.1275 66.3931 23.6719 66.9531 23.6719H71.9531C72.5131 23.6719 72.9688 24.1275 72.9688 24.6875V48.6719C72.9688 49.3191 73.4934 49.8438 74.1406 49.8438C74.7878 49.8438 75.3125 49.3191 75.3125 48.6719V47.4219H77.2656C78.7733 47.4219 80 46.1952 80 44.6875V35.3125C80 33.8048 78.7733 32.5781 77.2656 32.5781ZM2.73438 45.0781C2.51906 45.0781 2.34375 44.9028 2.34375 44.6875V35.3125C2.34375 35.0972 2.51906 34.9219 2.73438 34.9219H4.6875V45.0781H2.73438ZM27.1875 58.9844C27.1875 60.2336 26.1711 61.25 24.9219 61.25H18.6719C17.4227 61.25 16.4062 60.2336 16.4062 58.9844V21.0156C16.4062 19.7664 17.4227 18.75 18.6719 18.75H24.9219C26.1711 18.75 27.1875 19.7664 27.1875 21.0156V58.9844ZM63.5938 58.9844C63.5938 60.2336 62.5773 61.25 61.3281 61.25H55.0781C53.8289 61.25 52.8125 60.2336 52.8125 58.9844V21.0156C52.8125 19.7664 53.8289 18.75 55.0781 18.75H61.3281C62.5773 18.75 63.5938 19.7664 63.5938 21.0156V58.9844ZM77.6562 44.6875C77.6562 44.9028 77.4809 45.0781 77.2656 45.0781H75.3125V34.9219H77.2656C77.4809 34.9219 77.6562 35.0972 77.6562 35.3125V44.6875Z" fill="#263164"/>
  </symbol>

  <symbol id="gift" viewBox="0 0 20 20">
    <path d="M1.25 10.613V18.113C1.25 18.803 1.81125 19.363 2.5 19.363H8.75V10.613H1.25Z" fill="#FFF45E"/>
    <path d="M18.75 5.61302H14.795C15.0788 5.41927 15.3225 5.22677 15.4925 5.05427C16.5012 4.04052 16.5012 2.39052 15.4925 1.37677C14.5125 0.389273 12.805 0.391773 11.8263 1.37677C11.2838 1.92052 9.84625 4.13427 10.045 5.61302H9.955C10.1525 4.13427 8.715 1.92052 8.17375 1.37677C7.19375 0.391773 5.48625 0.391773 4.5075 1.37677C3.5 2.39052 3.5 4.04052 4.50625 5.05427C4.6775 5.22677 4.92125 5.41927 5.205 5.61302H1.25C0.56125 5.61302 0 6.17427 0 6.86302V8.73802C0 9.08302 0.28 9.36302 0.625 9.36302H8.75V6.86302H11.25V9.36302H19.375C19.72 9.36302 20 9.08302 20 8.73802V6.86302C20 6.17427 19.44 5.61302 18.75 5.61302ZM8.67625 5.57177C8.67625 5.57177 8.62375 5.61302 8.445 5.61302C7.58125 5.61302 5.9325 4.71552 5.39375 4.17302C4.87 3.64552 4.87 2.78552 5.39375 2.25802C5.6475 2.00302 5.98375 1.86302 6.34125 1.86302C6.6975 1.86302 7.03375 2.00302 7.2875 2.25802C8.13 3.10552 8.9675 5.27052 8.67625 5.57177ZM11.5538 5.61302C11.3763 5.61302 11.3237 5.57302 11.3237 5.57177C11.0325 5.27052 11.87 3.10552 12.7125 2.25802C13.2163 1.74927 14.0975 1.74677 14.6063 2.25802C15.1313 2.78552 15.1313 3.64552 14.6063 4.17302C14.0675 4.71552 12.4187 5.61302 11.5538 5.61302Z" fill="#FFF45E"/>
    <path d="M11.25 10.613V19.363H17.5C18.19 19.363 18.75 18.803 18.75 18.113V10.613H11.25Z" fill="#FFF45E"/>
  </symbol>

  <symbol id="printer" viewBox="0 0 20 20">
    <path d="M16.5039 3.86719V2.92969C16.5039 1.31426 15.1896 0 13.5742 0H6.38672C4.77129 0 3.45703 1.31426 3.45703 2.92969V3.86719H16.5039Z" fill="#FFF45E"/>
    <path d="M4.62891 12.4609V17.2266V18.2422V18.8281C4.62891 19.4753 5.15355 20 5.80078 20H14.1602C14.8074 20 15.332 19.4753 15.332 18.8281V18.2422V17.2266V12.4609H4.62891ZM11.543 17.4609H8.41797C8.09437 17.4609 7.83203 17.1986 7.83203 16.875C7.83203 16.5514 8.09437 16.2891 8.41797 16.2891H11.543C11.8666 16.2891 12.1289 16.5514 12.1289 16.875C12.1289 17.1986 11.8666 17.4609 11.543 17.4609ZM11.543 14.9609H8.41797C8.09437 14.9609 7.83203 14.6986 7.83203 14.375C7.83203 14.0514 8.09437 13.7891 8.41797 13.7891H11.543C11.8666 13.7891 12.1289 14.0514 12.1289 14.375C12.1289 14.6986 11.8666 14.9609 11.543 14.9609Z" fill="#FFF45E"/>
    <path d="M17.0508 5.03906H2.94922C1.33379 5.03906 0.0195312 6.35332 0.0195312 7.96875V12.6562C0.0195312 14.2717 1.33379 15.5859 2.94922 15.5859H3.45703V12.4609H3.10547C2.78187 12.4609 2.51953 12.1986 2.51953 11.875C2.51953 11.5514 2.78187 11.2891 3.10547 11.2891H4.04297H15.918H16.8555C17.1791 11.2891 17.4414 11.5514 17.4414 11.875C17.4414 12.1986 17.1791 12.4609 16.8555 12.4609H16.5039V15.5859H17.0508C18.6662 15.5859 19.9805 14.2717 19.9805 12.6562V7.96875C19.9805 6.35332 18.6662 5.03906 17.0508 5.03906ZM4.98047 8.71094H3.10547C2.78187 8.71094 2.51953 8.44859 2.51953 8.125C2.51953 7.80141 2.78187 7.53906 3.10547 7.53906H4.98047C5.30406 7.53906 5.56641 7.80141 5.56641 8.125C5.56641 8.44859 5.30406 8.71094 4.98047 8.71094Z" fill="#FFF45E"/>
  </symbol>

  <symbol id="dumbbell" viewBox="0 0 20 20">
    <path d="M19.651 6.14398L17.9971 4.49015L19.2404 3.24737C19.3503 3.13756 19.4121 2.98878 19.4121 2.83315C19.4121 2.67753 19.3503 2.52874 19.2404 2.41889L17.5759 0.754357C17.3561 0.53463 16.967 0.53463 16.7473 0.754357L15.5045 1.9976L13.8505 0.343458C13.3929 -0.11416 12.6509 -0.11416 12.1932 0.343458C11.7355 0.801076 11.7355 1.54307 12.1932 2.00073L17.9936 7.80125C18.4513 8.25886 19.1933 8.25886 19.651 7.80125C20.1086 7.34363 20.1086 6.60163 19.651 6.14398Z" fill="#FFF45E"/>
    <path d="M7.80704 17.9994L2.00659 12.1989C1.5489 11.7412 0.806983 11.7412 0.349287 12.1989C-0.108332 12.6566 -0.108332 13.3986 0.349287 13.8562L2.00339 15.5103L0.762569 16.7506C0.652686 16.8605 0.590889 17.0092 0.590889 17.1648C0.590889 17.3205 0.652686 17.4693 0.762569 17.5791L2.4271 19.2431C2.54152 19.3576 2.69144 19.4148 2.84136 19.4148C2.99128 19.4148 3.14121 19.3576 3.25562 19.2431L4.49593 18.0028L6.14977 19.6567C6.60738 20.1143 7.34938 20.1143 7.80704 19.6567C8.26473 19.199 8.26473 18.457 7.80704 17.9994Z" fill="#FFF45E"/>
    <path d="M10.5357 6.97217L6.97844 10.5415L9.46438 13.0275L13.0217 9.45803L10.5357 6.97217Z" fill="#FFF45E"/>
    <path d="M17.9937 9.45823L10.5359 2.00044C10.0783 1.54282 9.33625 1.54282 8.87863 2.00044C8.42094 2.45814 8.42094 3.20005 8.87863 3.65775L16.3364 11.1155C16.794 11.5732 17.536 11.5732 17.9937 11.1155C18.4514 10.6579 18.4514 9.91592 17.9937 9.45823Z" fill="#FFF45E"/>
    <path d="M11.1219 16.3422L3.66403 8.88435C3.20641 8.42673 2.46441 8.42673 2.00679 8.88435C1.5491 9.34205 1.5491 10.084 2.00679 10.5417L9.46459 17.9994C9.92221 18.4571 10.6642 18.4571 11.1219 17.9994C11.5796 17.5418 11.5796 16.7998 11.1219 16.3422Z" fill="#FFF45E"/>
  </symbol>

  <symbol id="home" viewBox="0 0 20 20">
    <g clip-path="url(#clip0)">
      <path d="M19.4602 8.69904C19.4598 8.69858 19.4593 8.69812 19.4589 8.69766L11.3005 0.539551C10.9527 0.19165 10.4904 0 9.99858 0C9.50679 0 9.04445 0.191498 8.69655 0.539398L0.542402 8.69339C0.539655 8.69614 0.536909 8.69904 0.534162 8.70178C-0.179949 9.42001 -0.178729 10.5853 0.537672 11.3017C0.864973 11.6292 1.29725 11.8188 1.75944 11.8387C1.77821 11.8405 1.79713 11.8414 1.81621 11.8414H2.14137V17.8453C2.14137 19.0334 3.10801 20 4.29637 20H7.4882C7.81169 20 8.07414 19.7377 8.07414 19.4141V14.707C8.07414 14.1649 8.51512 13.7239 9.05726 13.7239H10.9399C11.482 13.7239 11.923 14.1649 11.923 14.707V19.4141C11.923 19.7377 12.1853 20 12.509 20H15.7008C16.8891 20 17.8558 19.0334 17.8558 17.8453V11.8414H18.1573C18.6489 11.8414 19.1113 11.6499 19.4593 11.302C20.1765 10.5844 20.1768 9.41711 19.4602 8.69904Z" fill="#FFF45E"/>
    </g>
    <defs>
      <clipPath id="clip0">
        <rect width="20" height="20" fill="white"/>
      </clipPath>
    </defs>
  </symbol>

  <symbol id="calendar" viewBox="0 0 20 20">
    <path d="M10.0114 16.0776C11.9078 16.0776 13.4506 14.5348 13.4506 12.6383C13.4506 10.7419 11.9078 9.1991 10.0114 9.1991C8.11493 9.1991 6.57211 10.7419 6.57211 12.6383C6.57211 14.5348 8.11493 16.0776 10.0114 16.0776ZM7.98538 12.097C8.21152 11.8708 8.57819 11.8708 8.80447 12.097L9.56039 12.853L11.2184 11.1949C11.4447 10.9688 11.8114 10.9688 12.0375 11.1949C12.2636 11.4211 12.2636 11.7878 12.0375 12.014L9.96994 14.0816C9.8613 14.1902 9.71405 14.2511 9.56039 14.2511C9.40674 14.2511 9.25949 14.1902 9.15085 14.0816L7.98538 12.916C7.75925 12.6898 7.75925 12.3232 7.98538 12.097Z" fill="#FFF45E"/>
    <path d="M0.429688 18.127C0.429688 19.1597 1.26999 20 2.3027 20H17.7199C18.7526 20 19.5929 19.1597 19.5929 18.127V6.43481H0.429688V18.127ZM10.0114 8.0408C12.5465 8.0408 14.6089 10.1032 14.6089 12.6383C14.6089 15.1734 12.5465 17.2359 10.0114 17.2359C7.47635 17.2359 5.41382 15.1734 5.41382 12.6383C5.41382 10.1032 7.47635 8.0408 10.0114 8.0408Z" fill="#FFF45E"/>
    <path d="M19.5927 5.27649V3.49228C19.5927 2.45941 18.7526 1.61926 17.7197 1.61926H16.6638V2.65945C16.6638 2.97958 16.4043 3.23853 16.0846 3.23853C15.7646 3.23853 15.5055 2.97958 15.5055 2.65945V1.61926H14.3672V2.65945C14.3672 2.97958 14.1083 3.23853 13.7881 3.23853C13.4685 3.23853 13.2089 2.97958 13.2089 2.65945V1.61926H6.81396V2.65945C6.81396 2.97958 6.55457 3.23853 6.23489 3.23853C5.91476 3.23853 5.65567 2.97958 5.65567 2.65945V1.61926H4.51752V2.65945C4.51752 2.97958 4.25797 3.23853 3.93829 3.23853C3.61862 3.23853 3.35922 2.97958 3.35922 2.65945V1.61926H2.30286C1.26999 1.61926 0.42984 2.45941 0.42984 3.49228V5.27649H19.5927Z" fill="#FFF45E"/>
    <path d="M16.6638 0.579071C16.6638 0.259399 16.4043 0 16.0846 0C15.7646 0 15.5055 0.259399 15.5055 0.579071V1.61926H16.6638V0.579071Z" fill="#FFF45E"/>
    <path d="M14.3672 0.579071C14.3672 0.259399 14.1083 0 13.7881 0C13.4685 0 13.2089 0.259399 13.2089 0.579071V1.61926H14.3672V0.579071Z" fill="#FFF45E"/>
    <path d="M6.81396 0.579071C6.81396 0.259399 6.55457 0 6.23489 0C5.91476 0 5.65567 0.259399 5.65567 0.579071V1.61926H6.81396V0.579071Z" fill="#FFF45E"/>
    <path d="M4.51752 0.579071C4.51752 0.259399 4.25797 0 3.93829 0C3.61862 0 3.35922 0.259399 3.35922 0.579071V1.61926H4.51752V0.579071Z" fill="#FFF45E"/>
  </symbol>

  <symbol id="suitcase" viewBox="0 0 20 20">
    <g clip-path="url(#clip0)">
      <path d="M12.5002 5.41681C12.0402 5.41681 11.6669 5.04348 11.6669 4.58348V3.33348H8.33353V4.58348C8.33353 5.04348 7.9602 5.41681 7.5002 5.41681C7.0402 5.41681 6.66687 5.04348 6.66687 4.58348V3.33348C6.66687 2.41431 7.41437 1.66681 8.33353 1.66681H11.6669C12.586 1.66681 13.3335 2.41431 13.3335 3.33348V4.58348C13.3335 5.04348 12.9602 5.41681 12.5002 5.41681Z" fill="#FFF45E"/>
      <path d="M10.5917 12.8164C10.4417 12.8748 10.225 12.9164 10 12.9164C9.775 12.9164 9.55833 12.8748 9.35833 12.7998L0 9.68311V16.0414C0 17.3081 1.025 18.3331 2.29167 18.3331H17.7083C18.975 18.3331 20 17.3081 20 16.0414V9.68311L10.5917 12.8164Z" fill="#FFF45E"/>
      <path d="M20 6.45848V8.36681L10.2 11.6335C10.1333 11.6585 10.0667 11.6668 10 11.6668C9.93333 11.6668 9.86667 11.6585 9.8 11.6335L0 8.36681V6.45848C0 5.19181 1.025 4.16681 2.29167 4.16681H17.7083C18.975 4.16681 20 5.19181 20 6.45848Z" fill="#FFF45E"/>
    </g>
    <defs>
      <clipPath id="clip0">
        <rect width="20" height="20" fill="white"/>
      </clipPath>
    </defs>
  </symbol>

  <symbol id="arrow-left" viewBox="0 0 40 40">
    <g clip-path="url(#clip0)">
      <path d="M0.244141 20.589L12.7441 33.089C13.0697 33.4145 13.597 33.4145 13.9225 33.089C14.248 32.7634 14.248 32.2361 13.9225 31.9106L2.845 20.8331L39.1666 20.8331C39.6273 20.8331 40 20.4604 40 19.9998C40 19.5391 39.6273 19.1664 39.1666 19.1664L2.845 19.1664L13.9225 8.08897C14.248 7.76343 14.248 7.23608 13.9225 6.91062C13.7598 6.74788 13.5465 6.66648 13.3333 6.66648C13.1201 6.66648 12.9069 6.74788 12.7441 6.91062L0.244061 19.4106C-0.0814056 19.7361 -0.0814056 20.2634 0.244141 20.589Z" fill="#FFF45E"/>
    </g>
    <defs>
      <clipPath id="clip0">
        <rect width="40" height="40" fill="white" transform="translate(40 40) rotate(-180)"/>
      </clipPath>
    </defs>
  </symbol>

  <symbol id="arrow-sm" viewBox="0 0 16 16">
    <g clip-path="url(#clip0)">
      <path d="M15.8167 7.55759C15.8165 7.5574 15.8163 7.55718 15.8161 7.55699L12.5504 4.307C12.3057 4.06353 11.91 4.06444 11.6665 4.30912C11.423 4.55378 11.4239 4.9495 11.6686 5.193L13.8612 7.37499H0.625C0.279813 7.37499 0 7.6548 0 7.99999C0 8.34518 0.279813 8.62499 0.625 8.62499H13.8612L11.6686 10.807C11.4239 11.0505 11.423 11.4462 11.6665 11.6909C11.91 11.9356 12.3058 11.9364 12.5504 11.693L15.8162 8.44299C15.8163 8.4428 15.8165 8.44258 15.8167 8.4424C16.0615 8.19808 16.0607 7.80108 15.8167 7.55759Z" fill="#131313" fill-opacity="0.5"/>
    </g>
    <defs>
      <clipPath id="clip0">
        <rect width="16" height="16" fill="white"/>
      </clipPath>
    </defs>
  </symbol>

  <symbol id="magnifier" viewBox="0 0 16 16">
    <g clip-path="url(#clip0)">
      <path d="M7.04606 0C3.16097 0 0 3.16097 0 7.04606C0 10.9314 3.16097 14.0921 7.04606 14.0921C10.9314 14.0921 14.0921 10.9314 14.0921 7.04606C14.0921 3.16097 10.9314 0 7.04606 0ZM7.04606 12.7913C3.87816 12.7913 1.30081 10.214 1.30081 7.04609C1.30081 3.87819 3.87816 1.30081 7.04606 1.30081C10.214 1.30081 12.7913 3.87816 12.7913 7.04606C12.7913 10.214 10.214 12.7913 7.04606 12.7913Z" fill="#FFF45E"/>
      <path d="M15.8095 14.8898L12.0804 11.1608C11.8264 10.9067 11.4149 10.9067 11.1608 11.1608C10.9067 11.4147 10.9067 11.8266 11.1608 12.0805L14.8898 15.8095C15.0168 15.9365 15.1831 16 15.3496 16C15.5159 16 15.6824 15.9365 15.8095 15.8095C16.0636 15.5556 16.0636 15.1437 15.8095 14.8898Z" fill="#FFF45E"/>
    </g>
    <defs>
      <clipPath id="clip0">
        <rect width="16" height="16" fill="white"/>
      </clipPath>
    </defs>
  </symbol>

  <symbol id="close" viewBox="0 0 16 16">
    <path d="M15.7756 1.42052L14.6703 0.328417C14.3713 0.0293538 13.8772 0.0293538 13.5651 0.328417L8.05193 5.84146L2.43487 0.224395C2.13567 -0.0747984 1.64157 -0.0747984 1.32963 0.224395L0.224395 1.32963C-0.0747984 1.62869 -0.0747984 2.1228 0.224395 2.43487L5.82859 8.03906L0.328417 13.5652C0.0293538 13.8643 0.0293538 14.3584 0.328417 14.6705L1.43365 15.7757C1.73272 16.0748 2.22682 16.0748 2.53889 15.7757L8.05193 10.2625L13.5651 15.7757C13.8642 16.0748 14.3583 16.0748 14.6703 15.7757L15.7756 14.6705C16.0746 14.3714 16.0746 13.8773 15.7756 13.5652L10.2494 8.05206L15.7626 2.53902C16.0746 2.22669 16.0746 1.73259 15.7756 1.42052Z"/>
  </symbol>

  <symbol id="crown" viewBox="0 0 60 60">
    <path d="M58.8281 33.9219H56.3672C55.7201 33.9219 55.1953 33.3972 55.1953 32.75C55.1953 32.1028 55.7201 31.5781 56.3672 31.5781H58.8281C59.4752 31.5781 60 32.1028 60 32.75C60 33.3972 59.4752 33.9219 58.8281 33.9219Z" fill="#FFF45E"/>
    <path d="M3.63281 33.9219H1.17188C0.524648 33.9219 0 33.3972 0 32.75C0 32.1028 0.524648 31.5781 1.17188 31.5781H3.63281C4.27992 31.5781 4.80469 32.1028 4.80469 32.75C4.80469 33.3972 4.27992 33.9219 3.63281 33.9219Z" fill="#FFF45E"/>
    <path d="M47.7742 16.1478C47.4742 16.1478 47.1744 16.0334 46.9455 15.8046C46.4879 15.3469 46.4879 14.6049 46.9455 14.1473L48.6857 12.4072C49.1434 11.9496 49.8852 11.9496 50.343 12.4072C50.8006 12.8648 50.8006 13.6068 50.343 14.0646L48.6029 15.8047C48.3739 16.0334 48.0741 16.1478 47.7742 16.1478Z" fill="#FFF45E"/>
    <path d="M12.2258 16.1479C11.9258 16.1479 11.626 16.0335 11.3972 15.8047L9.65706 14.0646C9.19944 13.6069 9.19944 12.8649 9.65706 12.4072C10.1148 11.9496 10.8566 11.9496 11.3144 12.4072L13.0546 14.1473C13.5122 14.6049 13.5122 15.3469 13.0546 15.8046C12.8256 16.0335 12.5258 16.1479 12.2258 16.1479Z" fill="#FFF45E"/>
    <path d="M30 8.78564C29.3528 8.78564 28.8281 8.261 28.8281 7.61377V5.15283C28.8281 4.50561 29.3528 3.98096 30 3.98096C30.6471 3.98096 31.1719 4.50561 31.1719 5.15283V7.61377C31.1719 8.261 30.6471 8.78564 30 8.78564Z" fill="#FFF45E"/>
    <path d="M30 40.2718C29.6659 40.2718 29.3479 40.1293 29.1255 39.8799L24.1227 34.2708C23.7753 33.8812 23.7273 33.3087 24.0053 32.8669L29.0081 24.9127C29.2226 24.5717 29.5973 24.3647 30.0001 24.3647C30.403 24.3647 30.7777 24.5717 30.9921 24.9127L35.9949 32.8669C36.2728 33.3088 36.2249 33.8813 35.8774 34.2708L30.8747 39.8799C30.6522 40.1293 30.3341 40.2718 30 40.2718ZM26.4585 33.3686L30 37.3394L33.5416 33.3686L30 27.7378L26.4585 33.3686Z" fill="#FFF45E"/>
    <path d="M22.5785 47.1011C22.0963 47.1011 21.6512 46.7927 21.4816 46.3415C21.3117 45.8895 21.4431 45.3671 21.8058 45.0485C22.1892 44.7117 22.7632 44.6644 23.1969 44.9337C23.613 45.1921 23.8257 45.6986 23.7231 46.1765C23.6087 46.709 23.1231 47.1011 22.5785 47.1011Z" fill="#FFF45E"/>
    <path d="M55.0089 17.7478C54.6066 17.4891 54.0874 17.5007 53.6973 17.7772L46.0381 23.2058L43.7218 18.0257C43.5819 17.7127 43.3118 17.4765 42.9827 17.3797C42.6536 17.2829 42.299 17.3352 42.0116 17.5226L35.894 21.5149L30.9905 13.7585C30.7758 13.4188 30.402 13.2129 30 13.2129C29.5981 13.2129 29.2242 13.4188 29.0095 13.7585L24.1061 21.5149L17.9884 17.5226C17.7012 17.3351 17.3465 17.283 17.0173 17.3797C16.6882 17.4765 16.4182 17.7125 16.2782 18.0257L13.962 23.2058L6.3027 17.7772C5.91259 17.5005 5.39333 17.4891 4.99114 17.7478C4.58884 18.0066 4.38423 18.4839 4.47423 18.9537L9.43981 44.8921V44.8924L10.0239 53.6551C10.0608 54.2107 10.4838 54.6635 11.0356 54.7384C17.3275 55.592 23.6638 56.0188 30 56.0188C36.3362 56.0188 42.6725 55.592 48.9645 54.7384C49.5162 54.6635 49.9391 54.2107 49.9761 53.6551L50.5602 44.8924C50.5602 44.8923 50.5602 44.8922 50.5602 44.8921L55.5258 18.9537C55.6158 18.4839 55.4112 18.0066 55.0089 17.7478ZM42.1426 20.2357L44.0884 24.5876L39.771 27.6477L37.1465 23.4962L42.1426 20.2357ZM17.8574 20.2357L22.8536 23.4962L20.229 27.6477L15.9116 24.5876L17.8574 20.2357ZM48.3943 43.7406L46.6548 43.9509C40.4571 44.7005 34.1497 45.0326 27.9076 44.9386C27.9016 44.9386 27.8957 44.9385 27.8897 44.9385C27.2508 44.9385 26.728 45.4515 26.7183 46.0927C26.7086 46.7398 27.2252 47.2723 27.8725 47.2821C28.5744 47.2927 29.2763 47.2979 29.9795 47.2979C35.6363 47.2979 41.3309 46.9556 46.9361 46.2777L48.1286 46.1336L47.7014 52.5412C35.9497 54.0532 24.0502 54.0532 12.2985 52.5412L11.8713 46.1336L13.0637 46.2777C14.4013 46.4394 15.76 46.5839 17.102 46.7072C17.7452 46.7673 18.3169 46.2919 18.3761 45.6473C18.4352 45.0028 17.9607 44.4325 17.3162 44.3733C15.9965 44.2521 14.6605 44.11 13.3451 43.9509L11.6056 43.7406L7.32376 21.3736L19.8818 30.2743C20.1441 30.4602 20.471 30.5303 20.7868 30.4678C21.1022 30.4055 21.3782 30.2162 21.55 29.9443L30 16.5778L38.45 29.9443C38.6218 30.2161 38.8977 30.4055 39.2132 30.4678C39.5286 30.5303 39.8557 30.4602 40.1182 30.2743L52.6763 21.3736L48.3943 43.7406Z" fill="#FFF45E"/>
  </symbol>

  <symbol id="chat" viewBox="0 0 52 52" fill="none">
    <path d="M25.462 1C39.5443 1 51 12.3308 51 26.3295C51 26.769 51 27.2084 50.9684 27.6164H8.84812V7.08913C13.3101 3.29127 19.1013 1 25.462 1Z" stroke="#FFF45E" stroke-width="1.8676" stroke-miterlimit="22.9256" stroke-linecap="round" stroke-linejoin="round"/>
    <path d="M1.03165 27.6165C1 27.2399 1 26.8632 1 26.4866C1 19.7069 4.03798 13.6492 8.8481 9.56885V27.6479H1.03165V27.6165Z" stroke="#FFF45E" stroke-width="1.8676" stroke-miterlimit="22.9256" stroke-linecap="round" stroke-linejoin="round"/>
    <path d="M25.3671 48.9597C21.1582 48.8655 17.2658 47.6414 13.9114 45.6013L1 50.9999L6.47468 38.1625C4.5443 35.0551 3.37342 31.4456 3.18354 27.585H25.3987V48.9597H25.3671Z" stroke="#FFF45E" stroke-width="1.8676" stroke-miterlimit="22.9256" stroke-linecap="round" stroke-linejoin="round"/>
    <path d="M47.0127 27.6167C46.4431 38.7592 37.1709 47.6104 25.8102 47.6104C25.6519 47.6104 25.4937 47.6104 25.3671 47.6104V27.6481H47.0127V27.6167Z" stroke="#FFF45E" stroke-width="1.8676" stroke-miterlimit="22.9256" stroke-linecap="round" stroke-linejoin="round"/>
  </symbol>

  <symbol id="glasses" viewBox="0 0 90 90">
    <g clip-path="url(#clip0)">
      <path d="M23.3765 53.1932C23.2246 53.131 23.0619 53.0994 22.8977 53.1C22.7336 53.1007 22.5712 53.1337 22.4197 53.1971C22.2683 53.2606 22.1309 53.3532 22.0153 53.4698C21.8997 53.5863 21.8082 53.7245 21.746 53.8764C21.6838 54.0283 21.6521 54.191 21.6528 54.3552C21.6534 54.5193 21.6864 54.6818 21.7499 54.8332C21.8133 54.9846 21.9059 55.122 22.0225 55.2376C22.1391 55.3532 22.2772 55.4448 22.4292 55.507C22.5317 55.5492 22.6394 55.5773 22.7494 55.5906C22.9668 55.6177 23.1874 55.5871 23.3892 55.502C23.591 55.4168 23.7668 55.2801 23.8991 55.1056C24.0314 54.931 24.1155 54.7248 24.1429 54.5075C24.1703 54.2902 24.1401 54.0695 24.0553 53.8676C23.9925 53.7158 23.9002 53.578 23.7836 53.4622C23.6671 53.3465 23.5287 53.255 23.3765 53.1932Z" fill="#FFF45E"/>
      <path d="M86.1025 36.7021C85.9224 36.5564 85.7059 36.4627 85.4764 36.4312C85.2469 36.3998 85.0131 36.4318 84.8005 36.5238C81.7471 37.8813 78.4533 38.6153 75.1124 38.6824C74.796 38.6883 74.4937 38.8139 74.2663 39.0339C74.0389 39.2538 73.9034 39.5519 73.8871 39.8678C73.8708 40.1838 73.975 40.4942 74.1785 40.7364C74.382 40.9786 74.6698 41.1346 74.9839 41.173C75.0441 41.1804 75.1048 41.1831 75.1655 41.1813C77.9627 41.1233 80.7349 40.6412 83.3875 39.7514C82.808 41.456 82.1127 43.1191 81.3064 44.7289L54.9064 41.4644C57.146 40.1241 59.7707 39.5743 62.3599 39.9032C63.1756 40.0041 64.1014 40.117 65.0383 40.2313C65.3609 40.2596 65.682 40.1617 65.9338 39.958C66.1856 39.7544 66.3486 39.4609 66.3883 39.1395C66.4281 38.8181 66.3415 38.4938 66.1469 38.2349C65.9523 37.976 65.6647 37.8028 65.3449 37.7517L65.3418 37.7513C64.267 37.6184 63.3924 37.5119 62.6667 37.4221L62.6605 37.4214C60.7503 37.1785 58.8107 37.3281 56.9603 37.8611C55.2764 38.3446 53.6985 39.1408 52.309 40.208C51.7659 40.6257 51.2535 41.082 50.7758 41.5733C50.7709 40.3573 50.3229 39.1849 49.5157 38.2754C48.7085 37.366 47.5975 36.782 46.3907 36.6328C45.1839 36.4835 43.9641 36.7793 42.9597 37.4647C41.9553 38.1502 41.2352 39.1782 40.9342 40.3563C40.5907 39.7634 40.2048 39.196 39.7796 38.6585C38.6917 37.2849 37.3554 36.1279 35.8403 35.2478C34.1746 34.2811 32.3293 33.664 30.4172 33.4341L30.4124 33.4335C27.9437 33.1283 24.2199 32.6599 21.532 32.3197C17.0199 31.7501 12.7459 29.9709 9.16241 27.1706C8.97889 27.0296 8.76023 26.9416 8.5302 26.9162C8.30017 26.8908 8.06758 26.929 7.85772 27.0266C7.64764 27.1252 7.4694 27.2807 7.34319 27.4755C7.21698 27.6702 7.14786 27.8965 7.14366 28.1285L7.14348 28.1427C7.13998 28.4256 7.13865 29.4677 7.26956 31.0063C7.45236 33.1649 7.80455 35.3057 8.32288 37.409C9.0018 40.2392 10.0527 42.967 11.4482 45.5212C13.1301 48.5348 15.274 51.0213 17.82 52.9153C17.9519 53.0131 18.1018 53.0839 18.2611 53.1238C18.4204 53.1636 18.586 53.1717 18.7484 53.1476C18.9108 53.1235 19.0669 53.0676 19.2077 52.9831C19.3485 52.8987 19.4713 52.7873 19.5691 52.6554C19.6669 52.5235 19.7377 52.3736 19.7776 52.2143C19.8174 52.055 19.8255 51.8894 19.8014 51.727C19.7773 51.5646 19.7214 51.4085 19.6369 51.2677C19.5525 51.1269 19.4411 51.0041 19.3092 50.9063C18.6997 50.4547 18.1187 49.9659 17.5694 49.4427L37.6818 51.9297C37.2785 52.3299 36.8385 52.6914 36.3675 53.0094C34.3474 54.3718 31.681 54.9662 29.054 54.6414L29.0495 54.6408C28.6634 54.5931 28.2784 54.536 27.9053 54.4726C27.5815 54.4234 27.2514 54.5033 26.986 54.695C26.7205 54.8867 26.5409 55.1749 26.4857 55.4977C26.4305 55.8205 26.5041 56.152 26.6908 56.421C26.8775 56.6901 27.1623 56.8751 27.4839 56.9363C27.9017 57.0085 28.3256 57.0703 28.7427 57.1219C30.3399 57.3237 31.9599 57.2459 33.5304 56.8921C35.0412 56.5571 36.4767 55.9445 37.7639 55.0855C39.0436 54.2355 40.1302 53.1259 40.9533 51.8288C41.8154 50.467 42.3607 48.9289 42.549 47.3281C42.5797 47.0717 42.5956 46.8123 42.6048 46.5516C42.643 46.4548 42.669 46.3536 42.6822 46.2504L43.2958 41.2882C43.3772 40.6302 43.7166 40.0314 44.2395 39.6237C44.7623 39.2159 45.4257 39.0325 46.0837 39.1139C46.7418 39.1953 47.3405 39.5347 47.7483 40.0575C48.1561 40.5804 48.3394 41.2438 48.258 41.9018L47.6444 46.864C47.6321 46.9673 47.6327 47.0717 47.6462 47.1749C47.5915 47.4299 47.5438 47.6855 47.5112 47.9417C47.3038 49.5401 47.458 51.1647 47.9624 52.6956C48.4439 54.1541 49.2277 55.4946 50.2627 56.6295C51.3017 57.7766 52.5446 58.721 53.9283 59.4144C55.3653 60.1402 56.9177 60.6103 58.5159 60.8035L58.5408 60.8066C61.0571 61.1346 63.6095 61.0629 66.1035 60.594C68.2798 60.1718 70.3758 59.4087 72.3141 58.3329C74.8382 56.9289 77.1555 54.9814 79.2002 52.542C80.9005 50.4825 82.3581 48.2343 83.5444 45.8416C84.8208 43.3294 85.8198 40.6856 86.5236 37.957L86.5266 37.9448C86.579 37.7187 86.5671 37.4825 86.4921 37.2629C86.4171 37.0433 86.2822 36.849 86.1025 36.7021ZM9.75014 30.6693L9.74837 30.6455C11.4722 31.7489 13.3129 32.6582 15.2368 33.3567C17.171 34.0588 19.1774 34.5429 21.2189 34.8002C23.9083 35.1406 27.6352 35.6093 30.1056 35.9148C32.6968 36.2266 35.1084 37.3991 36.954 39.2445L10.5565 35.9803C10.1682 34.2302 9.89875 32.4558 9.75014 30.6693ZM11.2401 38.5839L38.9956 42.016C39.4342 42.8465 39.7552 43.734 39.9495 44.653L12.1689 41.2177C11.8049 40.3175 11.4986 39.4325 11.2401 38.5839ZM39.3252 49.6139L15.1149 46.6201C14.4878 45.7497 13.9203 44.838 13.4162 43.891L40.0432 47.1836C39.9263 48.0249 39.6843 48.8441 39.3252 49.6139ZM70.7941 56.3139C67.2011 58.2123 63.2847 58.8695 58.8227 58.3224L58.8181 58.3219C56.1911 57.997 53.7498 56.771 52.1193 54.9572C51.7405 54.5341 51.4022 54.0763 51.109 53.59L71.2233 56.0773C71.0807 56.1577 70.938 56.2375 70.7941 56.3139ZM74.2974 53.9384L50.0809 50.9439C49.9202 50.1098 49.885 49.2564 49.9766 48.4119L76.6096 51.7052C75.8905 52.5013 75.118 53.2474 74.2974 53.9384ZM78.4821 49.3973C78.4775 49.4036 78.4729 49.4097 78.4681 49.416L50.6838 45.9803C51.0961 45.1364 51.6237 44.3538 52.2513 43.6551L80.0087 47.0875C79.5448 47.8586 79.0385 48.6334 78.4821 49.3973Z" fill="#FFF45E"/>
      <path d="M70.3054 38.3544C69.9763 38.3141 69.6448 38.4062 69.3836 38.6104C69.1224 38.8146 68.9531 39.1142 68.9128 39.4433C68.8725 39.7723 68.9646 40.1039 69.1688 40.3651C69.3731 40.6263 69.6726 40.7956 70.0017 40.8359L70.0048 40.8363C70.1678 40.8562 70.3331 40.8438 70.4913 40.7997C70.6495 40.7557 70.7974 40.6808 70.9267 40.5795C71.0559 40.4782 71.1639 40.3524 71.2444 40.2093C71.325 40.0662 71.3765 39.9087 71.396 39.7456C71.4353 39.4171 71.3429 39.0865 71.1392 38.8259C70.9354 38.5653 70.6368 38.3959 70.3085 38.3548L70.3054 38.3544Z" fill="#FFF45E"/>
      <path d="M78.0179 35.5057C78.347 35.5464 78.6787 35.4547 78.9401 35.2509C79.2015 35.047 79.3712 34.7476 79.4119 34.4186L79.7187 31.9375C79.7594 31.6085 79.6677 31.2768 79.4638 31.0154C79.2599 30.7539 78.9606 30.5842 78.6315 30.5435C78.3025 30.5029 77.9708 30.5945 77.7094 30.7984C77.448 31.0023 77.2783 31.3017 77.2376 31.6307L76.9308 34.1118C76.8901 34.4408 76.9818 34.7725 77.1857 35.0339C77.3895 35.2953 77.6889 35.4651 78.0179 35.5057Z" fill="#FFF45E"/>
      <path d="M79.552 23.1C79.881 23.1407 80.2127 23.049 80.4741 22.8451C80.7355 22.6412 80.9052 22.3418 80.9459 22.0128L81.2527 19.5317C81.2934 19.2027 81.2017 18.871 80.9978 18.6096C80.794 18.3482 80.4946 18.1785 80.1656 18.1378C79.8366 18.0971 79.5049 18.1888 79.2434 18.3927C78.982 18.5965 78.8123 18.8959 78.7716 19.2249L78.4648 21.706C78.4241 22.035 78.5158 22.3667 78.7197 22.6282C78.9236 22.8896 79.223 23.0593 79.552 23.1Z" fill="#FFF45E"/>
      <path d="M78.9384 28.0622C79.6235 28.147 80.2476 27.6602 80.3323 26.9751C80.417 26.29 79.9303 25.6659 79.2452 25.5811C78.56 25.4964 77.9359 25.9831 77.8512 26.6683C77.7665 27.3534 78.2532 27.9775 78.9384 28.0622Z" fill="#FFF45E"/>
      <path d="M83.9006 28.676L86.3817 28.9828C86.7107 29.0235 87.0424 28.9318 87.3038 28.7279C87.5652 28.5241 87.7349 28.2247 87.7756 27.8957C87.8163 27.5666 87.7246 27.2349 87.5208 26.9735C87.3169 26.7121 87.0175 26.5424 86.6885 26.5017L84.2074 26.1949C83.8784 26.1542 83.5467 26.2459 83.2852 26.4498C83.0238 26.6537 82.8541 26.953 82.8134 27.2821C82.7727 27.6111 82.8644 27.9428 83.0683 28.2042C83.2722 28.4656 83.5716 28.6353 83.9006 28.676Z" fill="#FFF45E"/>
      <path d="M71.4951 27.1418L73.9762 27.4486C74.3052 27.4893 74.6369 27.3976 74.8983 27.1938C75.1597 26.9899 75.3294 26.6905 75.3701 26.3615C75.4108 26.0325 75.3191 25.7008 75.1152 25.4393C74.9114 25.1779 74.612 25.0082 74.283 24.9675L71.8019 24.6607C71.4728 24.62 71.1411 24.7117 70.8797 24.9156C70.6183 25.1195 70.4486 25.4189 70.4079 25.7479C70.3672 26.0769 70.4589 26.4086 70.6628 26.67C70.8667 26.9314 71.166 27.1011 71.4951 27.1418Z" fill="#FFF45E"/>
      <path d="M10.9281 68.774C10.5991 68.7333 10.2674 68.825 10.006 69.0289C9.74459 69.2328 9.57487 69.5321 9.53419 69.8612L9.22739 72.3423C9.1867 72.6713 9.27839 73.003 9.48227 73.2644C9.68615 73.5258 9.98552 73.6955 10.3145 73.7362C10.6436 73.7769 10.9753 73.6852 11.2367 73.4813C11.4981 73.2775 11.6678 72.9781 11.7085 72.6491L12.0153 70.168C12.056 69.8389 11.9643 69.5072 11.7604 69.2458C11.5565 68.9844 11.2572 68.8147 10.9281 68.774Z" fill="#FFF45E"/>
      <path d="M12.4622 56.3682C12.1332 56.3276 11.8015 56.4192 11.54 56.6231C11.2786 56.827 11.1089 57.1264 11.0682 57.4554L10.7614 59.9365C10.7207 60.2655 10.8124 60.5972 11.0163 60.8586C11.2202 61.12 11.5196 61.2898 11.8486 61.3305C12.1776 61.3711 12.5093 61.2795 12.7707 61.0756C13.0321 60.8717 13.2018 60.5723 13.2425 60.2433L13.5493 57.7622C13.59 57.4332 13.4983 57.1015 13.2944 56.8401C13.0906 56.5786 12.7912 56.4089 12.4622 56.3682Z" fill="#FFF45E"/>
      <path d="M11.235 66.2927C11.9201 66.3774 12.5442 65.8907 12.6289 65.2056C12.7136 64.5204 12.2269 63.8963 11.5418 63.8116C10.8566 63.7269 10.2325 64.2136 10.1478 64.8988C10.0631 65.5839 10.5498 66.208 11.235 66.2927Z" fill="#FFF45E"/>
      <path d="M18.9851 64.7322L16.5039 64.4254C16.1749 64.3847 15.8432 64.4764 15.5818 64.6803C15.3204 64.8841 15.1507 65.1835 15.11 65.5125C15.0693 65.8415 15.161 66.1732 15.3649 66.4347C15.5688 66.6961 15.8681 66.8658 16.1971 66.9065L18.6782 67.2133C19.0073 67.254 19.339 67.1623 19.6004 66.9584C19.8618 66.7545 20.0315 66.4551 20.0722 66.1261C20.1129 65.7971 20.0212 65.4654 19.8173 65.204C19.6134 64.9426 19.3141 64.7729 18.9851 64.7322Z" fill="#FFF45E"/>
      <path d="M6.57953 63.198L4.09843 62.8912C3.76942 62.8505 3.43772 62.9422 3.1763 63.1461C2.91488 63.35 2.74516 63.6493 2.70448 63.9783C2.66379 64.3074 2.75548 64.6391 2.95936 64.9005C3.16324 65.1619 3.46261 65.3316 3.79163 65.3723L6.27273 65.6791C6.60175 65.7198 6.93345 65.6281 7.19486 65.4242C7.45628 65.2203 7.626 64.921 7.66668 64.5919C7.70737 64.2629 7.61569 63.9312 7.41181 63.6698C7.20793 63.4084 6.90855 63.2387 6.57953 63.198Z" fill="#FFF45E"/>
    </g>
    <defs>
      <clipPath id="clip0">
        <rect width="80" height="80" fill="white" transform="translate(10.528 0.710449) rotate(7.04916)"/>
      </clipPath>
    </defs>
  </symbol>
</svg>
